<?xml version="1.0" encoding="UTF-8"?>
<svg version="1.1" xmlns="http://www.w3.org/2000/svg" width="600" height="600">
<path d="M0 0 C198 0 396 0 600 0 C600 198 600 396 600 600 C402 600 204 600 0 600 C0 402 0 204 0 0 Z " fill="#FEFEFE" transform="translate(0,0)"/>
<path d="M0 0 C0.44730469 0.845625 0.89460937 1.69125 1.35546875 2.5625 C1.96003906 3.696875 2.56460938 4.83125 3.1875 6 C3.77917969 7.11375 4.37085938 8.2275 4.98046875 9.375 C5.4748645 10.2402832 5.4748645 10.2402832 5.97924805 11.12304688 C7 13 7 13 7.92114258 15.20507812 C9.06860307 17.61605546 10.00594648 19.21194029 12 21 C16.14876694 21.99157251 20.07779277 21.75543306 24.3125 21.5 C28.169375 21.335 32.02625 21.17 36 21 C39.63 14.07 43.26 7.14 47 0 C57.6504065 1.06504065 57.6504065 1.06504065 63 3 C65.11480511 3.48430651 67.23436773 3.92217119 69.36328125 4.33984375 C73.30778537 5.32743071 77.14241051 6.71413684 81 8 C81 17.24 81 26.48 81 36 C82.65 36.33 84.3 36.66 86 37 C89.02800544 38.88549413 91.93271581 40.85874468 94.828125 42.9375 C97.41263059 44.70170599 99.31241883 45.98598973 102.4921875 46.05078125 C105.9585965 44.59834508 109.01917752 42.65157428 112.125 40.5625 C112.74503906 40.15451172 113.36507813 39.74652344 114.00390625 39.32617188 C115.67435032 38.22511573 117.33753891 37.11307284 119 36 C122 34 122 34 126 34 C128.1953125 35.97265625 128.1953125 35.97265625 129.46972656 37.35986328 C131.31154114 39.33390769 133.26854587 41.15394201 135.2421875 42.99609375 C136.78683911 44.47616521 138.33110097 45.95664352 139.875 47.4375 C140.67164063 48.17548828 141.46828125 48.91347656 142.2890625 49.67382812 C147.94270075 55.15688246 147.94270075 55.15688246 148.21875 59.21875 C146.93788567 62.14174808 145.54187567 64.51070981 143.625 67.0625 C142.40782326 68.70180399 141.19935548 70.34761287 140 72 C139.40960938 72.78246094 138.81921875 73.56492187 138.2109375 74.37109375 C136.51982683 78.04244045 136.9953752 80.11601122 138 84 C139.73227146 87.46965925 139.73227146 87.46965925 141.9375 90.75 C142.64777344 91.85859375 143.35804688 92.9671875 144.08984375 94.109375 C145.38915597 96.07561435 146.69270574 98.03905861 148 100 C150.57188491 100.33460483 150.57188491 100.33460483 153.55859375 100.1171875 C154.66654297 100.08496094 155.77449219 100.05273438 156.91601562 100.01953125 C159.26010581 99.92332344 161.60388399 99.81917973 163.94726562 99.70703125 C165.05650391 99.67738281 166.16574219 99.64773437 167.30859375 99.6171875 C168.32751709 99.57190918 169.34644043 99.52663086 170.39624023 99.47998047 C173 100 173 100 174.77124023 102.25561523 C175.82629327 104.6120331 176.69082976 106.80314827 177.3515625 109.29296875 C177.56272705 110.08405029 177.7738916 110.87513184 177.99145508 111.69018555 C178.2005249 112.51429932 178.40959473 113.33841309 178.625 114.1875 C178.95310669 115.45364136 178.95310669 115.45364136 179.2878418 116.74536133 C180.73607927 122.50228543 181.707749 128.05756298 182 134 C179.91059672 135.16593862 177.81957036 136.32882134 175.7265625 137.48828125 C173.82302199 138.54368265 171.92218668 139.6039715 170.0234375 140.66796875 C169.04632813 141.21066406 168.06921875 141.75335938 167.0625 142.3125 C166.14597656 142.82425781 165.22945313 143.33601562 164.28515625 143.86328125 C162 145 162 145 160 145 C158.93472396 159.67135132 158.93472396 159.67135132 162.89453125 173.40625 C172.13792514 180.66021651 185.86999789 179.1440777 197 179 C197 183.62 197 188.24 197 193 C152.93866792 193.0227886 108.87733662 193.04049726 64.81599981 193.05106533 C59.6199276 193.05231611 54.4238554 193.05361042 49.2277832 193.05493164 C48.1932928 193.05519395 47.1588024 193.05545626 46.09296381 193.05572652 C29.31946794 193.06008363 12.54597547 193.0679714 -4.22751837 193.0771528 C-21.42518171 193.0864882 -38.62284325 193.09205537 -55.82050902 193.09408849 C-66.4413789 193.09546396 -77.06223915 193.0998158 -87.68310607 193.10791647 C-94.95582059 193.11318253 -102.22853009 193.11480461 -109.50124639 193.11350138 C-113.70380487 193.11285778 -117.90634646 193.11387796 -122.10890198 193.11920547 C-125.94982447 193.12403929 -129.79071855 193.12433877 -133.63164229 193.12089889 C-135.02734456 193.12047318 -136.42304853 193.12176907 -137.81874739 193.12488318 C-139.70360817 193.12884701 -141.58847956 193.12615644 -143.47334194 193.12304783 C-144.5240281 193.12342755 -145.57471425 193.12380727 -146.65723938 193.1241985 C-149 193 -149 193 -150 192 C-149.90982004 189.80949979 -149.75333792 187.621534 -149.5625 185.4375 C-149.46066406 184.23996094 -149.35882813 183.04242188 -149.25390625 181.80859375 C-149.17011719 180.88175781 -149.08632812 179.95492187 -149 179 C-148.04915527 179.01740234 -148.04915527 179.01740234 -147.07910156 179.03515625 C-133.55370638 179.1727193 -124.57238252 179.01218626 -114 170 C-113.34 170 -112.68 170 -112 170 C-111.17318045 162.06484242 -110.40078768 153.65908074 -113 146 C-117.41738117 140.63718452 -123.77338998 137.68037789 -130.04467773 134.94775391 C-132 134 -132 134 -134 132 C-133.387008 120.96614394 -129.4587958 110.3763874 -126 100 C-117.42 100 -108.84 100 -100 100 C-99.113125 98.14375 -98.22625 96.2875 -97.3125 94.375 C-95.51237895 90.72761187 -93.8516168 87.53181255 -91.0625 84.5625 C-88.70104753 82.23432717 -88.70104753 82.23432717 -89.21020508 79.60766602 C-90.02197113 76.92745791 -91.02519097 75.03825219 -92.57421875 72.71484375 C-93.07630859 71.93689453 -93.57839844 71.15894531 -94.09570312 70.35742188 C-95.16224197 68.7360211 -96.23523869 67.11885094 -97.31445312 65.50585938 C-97.81267578 64.72919922 -98.31089844 63.95253906 -98.82421875 63.15234375 C-99.52164185 62.1003479 -99.52164185 62.1003479 -100.2331543 61.02709961 C-101 59 -101 59 -100.26098633 56.92797852 C-99.18281489 55.27951387 -98.09261709 53.63892564 -97 52 C-96.34 52 -95.68 52 -95 52 C-94.7525 51.38125 -94.505 50.7625 -94.25 50.125 C-92.77229238 47.61289704 -91.56044823 47.23892656 -89 46 C-88.67 45.01 -88.34 44.02 -88 43 C-86.22265625 41.24609375 -86.22265625 41.24609375 -84.0625 39.4375 C-81.96656037 37.66869432 -79.94005112 35.94005112 -78 34 C-72.22580169 34.14832803 -67.52810682 38.4075932 -62.97070312 41.58203125 C-58.74154972 44.38646496 -58.74154972 44.38646496 -53.77734375 44.984375 C-50.96695744 43.98828871 -48.90495732 42.87643631 -46.5 41.125 C-37.76893029 35 -37.76893029 35 -34 35 C-34 26.42 -34 17.84 -34 9 C-27.87269898 6.2767551 -22.26141799 3.99175036 -15.875 2.25 C-15.11574219 2.02957031 -14.35648438 1.80914062 -13.57421875 1.58203125 C-8.89646543 0.28578635 -4.85163959 -0.23164327 0 0 Z " fill="#040404" transform="translate(272,138)"/>
<path d="M0 0 C1.18335938 0.53753906 2.36671875 1.07507813 3.5859375 1.62890625 C27.45000862 12.98146106 47.95603296 31.74392515 59 56 C59 56.99 59 57.98 59 59 C59.66 59 60.32 59 61 59 C67.44063677 77.22821728 67.44063677 77.22821728 68.67578125 86.91015625 C68.78689788 88.98367922 68.78689788 88.98367922 70 90 C70.07325168 92.86267567 70.09238205 95.700719 70.0625 98.5625 C70.05798828 99.36880859 70.05347656 100.17511719 70.04882812 101.00585938 C70.03700518 103.00393756 70.01906914 105.00197783 70 107 C69.34 107 68.68 107 68 107 C67.94392578 105.42798828 67.94392578 105.42798828 67.88671875 103.82421875 C67.82105485 102.44527695 67.75460765 101.06637229 67.6875 99.6875 C67.66494141 98.99720703 67.64238281 98.30691406 67.61914062 97.59570312 C67.4163003 93.50793266 67.4163003 93.50793266 65.45703125 90.01953125 C64.97621094 89.68308594 64.49539063 89.34664063 64 89 C60.33761247 94.73243265 60.37341609 100.27851035 60 107 C53.565 106.505 53.565 106.505 47 106 C47 107.98 47 109.96 47 112 C45.625 113.875 45.625 113.875 44 115 C43.34 115 42.68 115 42 115 C42 114.34 42 113.68 42 113 C39.87635519 112.77390663 39.87635519 112.77390663 38.375 114.5 C37.92125 114.995 37.4675 115.49 37 116 C33.98385187 114.8829081 32.35491331 113.3874224 30.375 110.9375 C28.32880603 107.99175287 28.32880603 107.99175287 26 107 C26 107.66 26 108.32 26 109 C24.68 109 23.36 109 22 109 C22.33 106.69 22.66 104.38 23 102 C22.01 101.67 21.02 101.34 20 101 C19.67 97.7 19.34 94.4 19 91 C21.475 90.505 21.475 90.505 24 90 C24 88.35 24 86.7 24 85 C19.38 85 14.76 85 10 85 C10 84.34 10 83.68 10 83 C9.34 82.67 8.68 82.34 8 82 C8.33 81.34 8.66 80.68 9 80 C8.01 80 7.02 80 6 80 C6.33 79.01 6.66 78.02 7 77 C7 77.66 7 78.32 7 79 C9.64 78.67 12.28 78.34 15 78 C14.9278125 77.40832031 14.855625 76.81664062 14.78125 76.20703125 C13.98961848 69.46716844 13.98961848 69.46716844 14.0625 66.1875 C13.95469458 62.41431027 12.54369021 60.52769932 9.875 57.9375 C8 56 8 56 8 53 C7.01 53 6.02 53 5 53 C5 53.66 5 54.32 5 55 C-6.38416966 53.48211071 -17.61887764 51.09577293 -28.859375 48.76757812 C-39.4652363 46.11637333 -39.4652363 46.11637333 -50 47 C-50.33 46.67 -50.66 46.34 -51 46 C-53.32817964 45.63239269 -55.6618385 45.29758419 -58 45 C-58 44.01 -58 43.02 -58 42 C-58.33 42.99 -58.66 43.98 -59 45 C-60.6254308 44.85904936 -62.25034051 44.71207913 -63.875 44.5625 C-64.77992188 44.48128906 -65.68484375 44.40007812 -66.6171875 44.31640625 C-69 44 -69 44 -71 43 C-71.4140625 40.93359375 -71.4140625 40.93359375 -71.625 38.4375 C-71.69976562 37.61121094 -71.77453125 36.78492188 -71.8515625 35.93359375 C-71.90054688 35.29550781 -71.94953125 34.65742188 -72 34 C-73.98 33.505 -73.98 33.505 -76 33 C-76 33.66 -76 34.32 -76 35 C-74.515 35.495 -74.515 35.495 -73 36 C-73.99 36 -74.98 36 -76 36 C-76 36.66 -76 37.32 -76 38 C-75.01 38 -74.02 38 -73 38 C-73 39.32 -73 40.64 -73 42 C-73.66 42 -74.32 42 -75 42 C-75.33 42.99 -75.66 43.98 -76 45 C-76.99 45 -77.98 45 -79 45 C-79 44.34 -79 43.68 -79 43 C-80.485 42.505 -80.485 42.505 -82 42 C-82 40.35 -82 38.7 -82 37 C-83.32 37.33 -84.64 37.66 -86 38 C-86 39.32 -86 40.64 -86 42 C-85.34 42.33 -84.68 42.66 -84 43 C-84 43.66 -84 44.32 -84 45 C-84.64324219 44.88140625 -85.28648437 44.7628125 -85.94921875 44.640625 C-93.1204993 43.61761779 -98.35713434 44.65413685 -105.15234375 47.08984375 C-108 48 -108 48 -112 48 C-111.98839844 47.36191406 -111.97679687 46.72382813 -111.96484375 46.06640625 C-111.95582031 45.24011719 -111.94679687 44.41382813 -111.9375 43.5625 C-111.92589844 42.73878906 -111.91429687 41.91507813 -111.90234375 41.06640625 C-111.76732652 39.00836062 -111.76732652 39.00836062 -113 38 C-113 42.95 -113 47.9 -113 53 C-111.02 53 -109.04 53 -107 53 C-106.34 54.32 -105.68 55.64 -105 57 C-103.35 57 -101.7 57 -100 57 C-99.67 58.32 -99.34 59.64 -99 61 C-98.01 59.515 -98.01 59.515 -97 58 C-95.16821289 57.71948242 -95.16821289 57.71948242 -92.97265625 57.85546875 C-91.78446289 57.92411133 -91.78446289 57.92411133 -90.57226562 57.99414062 C-89.74404297 58.05794922 -88.91582031 58.12175781 -88.0625 58.1875 C-87.23814453 58.23197266 -86.41378906 58.27644531 -85.56445312 58.32226562 C-79.40906306 58.72729129 -79.40906306 58.72729129 -76 61 C-76.93972656 61.18175781 -76.93972656 61.18175781 -77.8984375 61.3671875 C-78.71570313 61.53476563 -79.53296875 61.70234375 -80.375 61.875 C-81.18710937 62.03742188 -81.99921875 62.19984375 -82.8359375 62.3671875 C-85.18673923 62.86658932 -85.18673923 62.86658932 -87 65 C-89.58489724 65.10042675 -92.10612836 64.93117549 -94.6875 64.77734375 C-95.450625 64.85082031 -96.21375 64.92429687 -97 65 C-97.66 65.99 -98.32 66.98 -99 68 C-98.278125 67.67 -97.55625 67.34 -96.8125 67 C-93.98302573 65.99396471 -91.97104534 65.83022598 -89 66 C-89.33 67.98 -89.66 69.96 -90 72 C-90.33 70.68 -90.66 69.36 -91 68 C-91.66 68 -92.32 68 -93 68 C-93 71.96 -93 75.92 -93 80 C-93.66 80 -94.32 80 -95 80 C-95.495 85.94 -95.495 85.94 -96 92 C-95.34 92 -94.68 92 -94 92 C-93.8200072 97.21979128 -94.02905192 101.07262981 -96 106 C-94.35 106 -92.7 106 -91 106 C-91 107.65 -91 109.3 -91 111 C-92.65 110.67 -94.3 110.34 -96 110 C-95.67 110.66 -95.34 111.32 -95 112 C-94.960008 113.99960012 -94.95653201 116.00047242 -95 118 C-94.25234375 118.13277344 -93.5046875 118.26554687 -92.734375 118.40234375 C-91.25710937 118.66724609 -91.25710937 118.66724609 -89.75 118.9375 C-88.77546875 119.11152344 -87.8009375 119.28554688 -86.796875 119.46484375 C-84.50278205 119.90379729 -82.25708029 120.40348592 -80 121 C-80 121.66 -80 122.32 -80 123 C-75.57505451 123.6679163 -71.35156397 124.05305557 -66.875 124 C-60.22074662 123.92512795 -53.62828847 124.45812532 -47 125 C-46.67 125.99 -46.34 126.98 -46 128 C-49.81248426 128.02887236 -53.6249407 128.04675492 -57.4375 128.0625 C-58.52611328 128.07087891 -59.61472656 128.07925781 -60.73632812 128.08789062 C-62.28803711 128.09272461 -62.28803711 128.09272461 -63.87109375 128.09765625 C-65.30859985 128.10551147 -65.30859985 128.10551147 -66.77514648 128.11352539 C-69 128 -69 128 -70 127 C-72.5 126.83333333 -72.5 126.83333333 -75 127 C-75.33 127.33 -75.66 127.66 -76 128 C-77.51928038 128.07179964 -79.04167482 128.08392007 -80.5625 128.0625 C-81.38878906 128.05347656 -82.21507812 128.04445313 -83.06640625 128.03515625 C-83.70449219 128.02355469 -84.34257812 128.01195312 -85 128 C-85 126.02 -85 124.04 -85 122 C-88.96 121.67 -92.92 121.34 -97 121 C-97.33 116.71 -97.66 112.42 -98 108 C-101.3 107.67 -104.6 107.34 -108 107 C-108.33 105.68 -108.66 104.36 -109 103 C-111.64 103 -114.28 103 -117 103 C-117 103.99 -117 104.98 -117 106 C-119.64 106 -122.28 106 -125 106 C-125 108.31 -125 110.62 -125 113 C-126.65 113 -128.3 113 -130 113 C-130.99 110.03 -130.99 110.03 -132 107 C-133.32 107 -134.64 107 -136 107 C-136.06058594 105.95199219 -136.12117188 104.90398437 -136.18359375 103.82421875 C-136.26801738 102.44529952 -136.35266447 101.06639395 -136.4375 99.6875 C-136.47681641 98.99720703 -136.51613281 98.30691406 -136.55664062 97.59570312 C-136.74927415 94.52838465 -137.02322717 91.93031848 -138 89 C-140.97 89 -143.94 89 -147 89 C-147 89.66 -147 90.32 -147 91 C-147.66 91 -148.32 91 -149 91 C-149 94.63 -149 98.26 -149 102 C-150.60875 102.020625 -152.2175 102.04125 -153.875 102.0625 C-155.23238281 102.07990234 -155.23238281 102.07990234 -156.6171875 102.09765625 C-159 102 -159 102 -161 101 C-161.16032995 95.12123504 -160.6092534 89.76611905 -159.5 84 C-159.35691406 83.22527344 -159.21382812 82.45054687 -159.06640625 81.65234375 C-158.71727671 79.76704421 -158.35954684 77.88334061 -158 76 C-157.34 76 -156.68 76 -156 76 C-155.90976563 74.68773437 -155.81953125 73.37546875 -155.7265625 72.0234375 C-155.16604976 67.02960103 -153.6071679 63.0898554 -151.375 58.625 C-151.01599609 57.88822021 -150.65699219 57.15144043 -150.28710938 56.39233398 C-136.88853786 29.38546905 -113.81129744 7.34602326 -85.08447266 -2.66772461 C-57.15921044 -11.74941637 -26.93247794 -12.46873978 0 0 Z " fill="#FBFBFB" transform="translate(341,189)"/>
<path d="M0 0 C2.475 0.495 2.475 0.495 5 1 C5 3.97 5 6.94 5 10 C10.94 10.99 10.94 10.99 17 12 C16.505 10.515 16.505 10.515 16 9 C16.66 9 17.32 9 18 9 C18 9.99 18 10.98 18 12 C19.670625 11.9690625 19.670625 11.9690625 21.375 11.9375 C25 12 25 12 27 13 C27.66 12.67 28.32 12.34 29 12 C36.09367192 12.53577582 42.97612042 13.88588664 49.9375 15.3125 C51.02474365 15.53252686 52.1119873 15.75255371 53.23217773 15.97924805 C62.51431491 17.87059689 71.76556154 19.88893425 81 22 C81 21.34 81 20.68 81 20 C81.99 20 82.98 20 84 20 C84.268125 20.78375 84.53625 21.5675 84.8125 22.375 C85.84814432 25.28114923 85.84814432 25.28114923 89 27 C91.51353758 30.56223207 91.2036435 34.003251 91.125 38.25 C91.10695313 39.51328125 91.08890625 40.7765625 91.0703125 42.078125 C91.04710937 43.04234375 91.02390625 44.0065625 91 45 C88.94921875 45.22786458 86.8984375 45.45572917 84.84765625 45.68359375 C82.98859771 45.81886614 82.98859771 45.81886614 82 47 C82.99 47 83.98 47 85 47 C85.495 49.475 85.495 49.475 86 52 C90.62 52 95.24 52 100 52 C100 53.65 100 55.3 100 57 C97.525 57.495 97.525 57.495 95 58 C95.28109113 59.64767247 95.57518526 61.29313145 95.875 62.9375 C96.03742188 63.85402344 96.19984375 64.77054687 96.3671875 65.71484375 C96.68042969 66.84599609 96.68042969 66.84599609 97 68 C97.66 68.33 98.32 68.66 99 69 C98.67 71.31 98.34 73.62 98 76 C99.32 76 100.64 76 102 76 C102 75.34 102 74.68 102 74 C105.05740973 75.13237398 106.57096393 76.59276689 108.5 79.125 C109.325 80.07375 110.15 81.0225 111 82 C112.32 82 113.64 82 115 82 C115.33 81.01 115.66 80.02 116 79 C116.66 79.33 117.32 79.66 118 80 C118 80.66 118 81.32 118 82 C118.66 82 119.32 82 120 82 C120.33 81.01 120.66 80.02 121 79 C121.66 79 122.32 79 123 79 C123 77.02 123 75.04 123 73 C124.60407328 72.97291433 126.2082785 72.95356517 127.8125 72.9375 C128.70582031 72.92589844 129.59914063 72.91429687 130.51953125 72.90234375 C133 73 133 73 136 74 C135.95359375 73.23816406 135.9071875 72.47632813 135.859375 71.69140625 C135.60628604 64.45125422 136.42326461 59.3231572 140 53 C143.33886257 58.00829385 144.26932999 60.74221462 144.125 66.6875 C144.11597656 67.38939453 144.10695313 68.09128906 144.09765625 68.81445312 C144.07413704 70.54311525 144.03826713 72.27160145 144 74 C144.66 74 145.32 74 146 74 C146 70.37 146 66.74 146 63 C146.33 63 146.66 63 147 63 C147.02778611 65.81257169 147.04720199 68.62485176 147.0625 71.4375 C147.07087891 72.20126953 147.07925781 72.96503906 147.08789062 73.75195312 C147.12177042 82.18802171 146.54435014 90.58558647 146 99 C138.61271898 99.02526692 131.22544902 99.0428316 123.83813477 99.05493164 C121.32283105 99.05997363 118.80753028 99.06680703 116.29223633 99.07543945 C112.68570225 99.08751094 109.07920677 99.09322949 105.47265625 99.09765625 C103.77424339 99.10539818 103.77424339 99.10539818 102.04151917 99.11329651 C100.48001381 99.11340981 100.48001381 99.11340981 98.88696289 99.11352539 C97.96540909 99.115746 97.04385529 99.11796661 96.09437561 99.12025452 C94 99 94 99 93 98 C91.48071962 97.92820036 89.95832518 97.91607993 88.4375 97.9375 C87.61121094 97.94652344 86.78492188 97.95554687 85.93359375 97.96484375 C85.29550781 97.97644531 84.65742188 97.98804688 84 98 C84 97.34 84 96.68 84 96 C82.68 96 81.36 96 80 96 C80 96.66 80 97.32 80 98 C73.07 98 66.14 98 59 98 C59 97.34 59 96.68 59 96 C58.15695312 96 57.31390625 96 56.4453125 96 C52.63020833 96 48.81510417 96 45 96 C43.2675 96.0928125 43.2675 96.0928125 41.5 96.1875 C40.345 96.125625 39.19 96.06375 38 96 C34.05112869 90.07669304 35.78941942 81.74466323 37 75 C36.67 74.01 36.34 73.02 36 72 C28.41 72 20.82 72 13 72 C13 71.34 13 70.68 13 70 C14.65 70 16.3 70 18 70 C17.505 65.545 17.505 65.545 17 61 C19.475 60.505 19.475 60.505 22 60 C22 55.38 22 50.76 22 46 C20.68 46 19.36 46 18 46 C17.67 47.65 17.34 49.3 17 51 C5.12 51 -6.76 51 -19 51 C-19 49.68 -19 48.36 -19 47 C-18.34 47 -17.68 47 -17 47 C-17 43.04 -17 39.08 -17 35 C-16.34 35 -15.68 35 -15 35 C-14.67 35.66 -14.34 36.32 -14 37 C-13.67 35.68 -13.34 34.36 -13 33 C-14.36125 33.495 -14.36125 33.495 -15.75 34 C-19 35 -19 35 -23 35 C-22.34 33.68 -21.68 32.36 -21 31 C-20.30132812 31.02320313 -19.60265625 31.04640625 -18.8828125 31.0703125 C-17.97273438 31.08835938 -17.06265625 31.10640625 -16.125 31.125 C-15.22007812 31.14820313 -14.31515625 31.17140625 -13.3828125 31.1953125 C-10.81193006 31.24324836 -10.81193006 31.24324836 -9 29 C-7.01643517 28.28591666 -5.01684563 27.61382258 -3 27 C-5.93713834 26.72454972 -8.87168002 26.47880522 -11.8125 26.25 C-13.06256836 26.12818359 -13.06256836 26.12818359 -14.33789062 26.00390625 C-16.62251994 25.83875232 -18.72545624 25.72221065 -21 26 C-23.14165445 27.80516589 -23.14165445 27.80516589 -24 30 C-24 28.35 -24 26.7 -24 25 C-25.65 24.67 -27.3 24.34 -29 24 C-29.33 24.66 -29.66 25.32 -30 26 C-30.33 24.35 -30.66 22.7 -31 21 C-32.98 20.67 -34.96 20.34 -37 20 C-37 15.05 -37 10.1 -37 5 C-36.01 5.495 -36.01 5.495 -35 6 C-35.33 8.97 -35.66 11.94 -36 15 C-33.53751347 14.40984204 -31.08096562 13.80373225 -28.625 13.1875 C-27.92632812 13.02185547 -27.22765625 12.85621094 -26.5078125 12.68554688 C-21.96323061 11.56828793 -21.96323061 11.56828793 -19 8 C-19 8.99 -19 9.98 -19 11 C-18.34 11 -17.68 11 -17 11 C-16.67 10.01 -16.34 9.02 -16 8 C-16 8.99 -16 9.98 -16 11 C-15.01 10.67 -14.02 10.34 -13 10 C-10.3125 10.9375 -10.3125 10.9375 -8 12 C-8 11.34 -8 10.68 -8 10 C-8.99 9.67 -9.98 9.34 -11 9 C-10.67 7.35 -10.34 5.7 -10 4 C-8.02 3.67 -6.04 3.34 -4 3 C-4.66 3.33 -5.32 3.66 -6 4 C-5.65555119 6.47266765 -5.65555119 6.47266765 -5 9 C-4.34 9.33 -3.68 9.66 -3 10 C-3 10.66 -3 11.32 -3 12 C-2.01 11.67 -1.02 11.34 0 11 C0.33 10.34 0.66 9.68 1 9 C1.66 9 2.32 9 3 9 C3 7.68 3 6.36 3 5 C2.01 5 1.02 5 0 5 C0 3.35 0 1.7 0 0 Z " fill="#141212" transform="translate(265,222)"/>
<path d="M0 0 C113.85 0 227.7 0 345 0 C345 1.65 345 3.3 345 5 C344.21374741 4.99920441 343.42749481 4.99840881 342.61741638 4.99758911 C335.18755619 4.99537624 327.75860528 5.02190541 320.3289938 5.0802784 C316.50977306 5.10928338 312.69116379 5.12738666 308.87182617 5.12011719 C305.1819953 5.11350297 301.49337044 5.13612442 297.80378914 5.17855453 C296.40011962 5.1896491 294.99632724 5.19041875 293.59264946 5.18042374 C284.48953679 4.90348305 284.48953679 4.90348305 276.76977539 9.03857422 C276.28738907 9.58601288 275.80500275 10.13345154 275.30799866 10.69747925 C274 12 274 12 271 12.1875 C268 11 268 11 264.92578125 8.46484375 C260.49922463 5.2549804 256.51473632 5.25383466 251.1875 5.375 C250.34896484 5.35566406 249.51042969 5.33632813 248.64648438 5.31640625 C241.04189751 5.37485811 238.51989984 7.24005008 231 11 C230.67 19.58 230.34 28.16 230 37 C216.35532995 42.68527919 216.35532995 42.68527919 211.3125 43.8125 C209.82169922 44.16248047 209.82169922 44.16248047 208.30078125 44.51953125 C204.24018729 45.11059996 200.10338708 45 196 45 C190.555 35.1 190.555 35.1 185 25 C176.75 25 168.5 25 160 25 C158.906875 27.18625 157.81375 29.3725 156.6875 31.625 C154.82421875 35.3515625 154.82421875 35.3515625 153.89990234 37.19628906 C153.03657913 38.92668297 152.18405976 40.66245436 151.33203125 42.3984375 C150 45 150 45 149 46 C142.11115166 45.55042656 135.84921935 44.02532059 129.25 42.0625 C128.33089844 41.79759766 127.41179687 41.53269531 126.46484375 41.25976562 C122.18594052 40.0120102 118.15294448 38.66117779 114 37 C114.33 28.42 114.66 19.84 115 11 C113.35 10.34 111.7 9.68 110 9 C109.10796875 8.47535156 108.2159375 7.95070313 107.296875 7.41015625 C102.87998636 5.52094204 99.00987984 5.42728852 94.25 5.4375 C93.35982178 5.43484131 92.46964355 5.43218262 91.55249023 5.42944336 C85.23520475 5.57813302 80.95771522 6.6759768 75.97265625 10.78515625 C74 12 74 12 71.55859375 11.99609375 C69 11 69 11 66.74275208 8.47895813 C63.41205613 5.46860372 61.97859352 5.36673724 57.55737305 5.34057617 C56.27642258 5.32093307 54.99547211 5.30128998 53.67570496 5.28105164 C52.28770814 5.28449458 50.89971258 5.28847957 49.51171875 5.29296875 C48.08394772 5.27984666 46.65619523 5.26454085 45.22846985 5.24714661 C41.48178286 5.20734204 37.73558197 5.19710924 33.9887085 5.19311523 C30.16094255 5.18377501 26.33346119 5.14635606 22.50585938 5.11132812 C15.00390376 5.04679889 7.50223939 5.01352082 0 5 C0 3.35 0 1.7 0 0 Z " fill="#0B0B0B" transform="translate(123,406)"/>
<path d="M0 0 C2.4375 0.6875 2.4375 0.6875 5 2 C5.66015625 4.58203125 5.66015625 4.58203125 6 7 C6.56807373 6.98952637 7.13614746 6.97905273 7.72143555 6.96826172 C32.3610936 6.57474449 32.3610936 6.57474449 40 9 C40.99 10.485 40.99 10.485 42 12 C45.35503476 12.36558117 45.35503476 12.36558117 49.125 12.1875 C50.40632813 12.16042969 51.68765625 12.13335937 53.0078125 12.10546875 C54.48894531 12.05326172 54.48894531 12.05326172 56 12 C56.23460937 12.63421875 56.46921875 13.2684375 56.7109375 13.921875 C57.82290908 16.18250739 57.82290908 16.18250739 60.1640625 16.828125 C60.97617187 16.96734375 61.78828125 17.1065625 62.625 17.25 C63.44226563 17.39953125 64.25953125 17.5490625 65.1015625 17.703125 C65.72804688 17.80109375 66.35453125 17.8990625 67 18 C67.495 19.98 67.495 19.98 68 22 C66.54462432 22.83848804 65.08559627 23.67063934 63.625 24.5 C62.81289063 24.9640625 62.00078125 25.428125 61.1640625 25.90625 C59 27 59 27 57 27 C57 28.98 57 30.96 57 33 C56.34 33 55.68 33 55 33 C55 33.66 55 34.32 55 35 C51.37 35 47.74 35 44 35 C44 37.31 44 39.62 44 42 C51.26 41.67 58.52 41.34 66 41 C66 39.68 66 38.36 66 37 C66.66 37 67.32 37 68 37 C68 36.34 68 35.68 68 35 C67.34 35 66.68 35 66 35 C66 34.34 66 33.68 66 33 C67.485 33.495 67.485 33.495 69 34 C69 34.66 69 35.32 69 36 C77.58 36 86.16 36 95 36 C95 36.66 95 37.32 95 38 C91.32612505 38.85298376 87.9552607 39.10789471 84.1875 39.0625 C83.21167969 39.05347656 82.23585938 39.04445313 81.23046875 39.03515625 C80.12638672 39.01775391 80.12638672 39.01775391 79 39 C79 39.66 79 40.32 79 41 C75.535 41.495 75.535 41.495 72 42 C72 42.33 72 42.66 72 43 C62.1 43.495 62.1 43.495 52 44 C52.33 44.66 52.66 45.32 53 46 C57.95 46 62.9 46 68 46 C64.38863788 47.80568106 63.455469 48.24851563 59.75 48.125 C58.5125 48.08375 57.275 48.0425 56 48 C56.62533375 50.52363988 56.62533375 50.52363988 58 53 C60.54775306 53.89386164 60.54775306 53.89386164 63 54 C62.34 54.99 61.68 55.98 61 57 C64.67143168 58.22381056 66.19003607 57.59631158 69.875 56.5625 C73.72056734 55.48786151 77.00070803 54.81553081 81 55 C78 57 78 57 75 58 C75.99 59.98 76.98 61.96 78 64 C81.96 64 85.92 64 90 64 C90.495 63.01 90.495 63.01 91 62 C91 65.3 91 68.6 91 72 C88.69 71.67 86.38 71.34 84 71 C83.34 72.98 82.68 74.96 82 77 C80.68 77 79.36 77 78 77 C78 75.35 78 73.7 78 72 C76.68 72 75.36 72 74 72 C74 70.02 74 68.04 74 66 C67.07 65.505 67.07 65.505 60 65 C60 68.3 60 71.6 60 75 C58.68 75 57.36 75 56 75 C56 75.66 56 76.32 56 77 C51.66666667 77 47.33333333 77 43 77 C42.67 77.33 42.34 77.66 42 78 C38.5625 78.25 38.5625 78.25 35 78 C31.05112869 72.07669304 32.78941942 63.74466323 34 57 C33.67 56.01 33.34 55.02 33 54 C25.41 54 17.82 54 10 54 C10 53.34 10 52.68 10 52 C11.65 52 13.3 52 15 52 C14.505 47.545 14.505 47.545 14 43 C16.475 42.505 16.475 42.505 19 42 C19 37.38 19 32.76 19 28 C17.68 28 16.36 28 15 28 C14.505 30.475 14.505 30.475 14 33 C2.12 33 -9.76 33 -22 33 C-22 31.68 -22 30.36 -22 29 C-21.34 29 -20.68 29 -20 29 C-20 25.04 -20 21.08 -20 17 C-19.34 17 -18.68 17 -18 17 C-17.67 17.66 -17.34 18.32 -17 19 C-16.67 17.68 -16.34 16.36 -16 15 C-16.9075 15.33 -17.815 15.66 -18.75 16 C-22 17 -22 17 -26 17 C-25.34 15.68 -24.68 14.36 -24 13 C-23.30132812 13.02320313 -22.60265625 13.04640625 -21.8828125 13.0703125 C-20.51769531 13.09738281 -20.51769531 13.09738281 -19.125 13.125 C-18.22007812 13.14820313 -17.31515625 13.17140625 -16.3828125 13.1953125 C-13.81193006 13.24324836 -13.81193006 13.24324836 -12 11 C-9.26498322 10.04868981 -6.51922955 9.15865347 -3.75 8.3125 C-0.9256497 6.19423727 -0.73842136 3.32289614 0 0 Z " fill="#494949" transform="translate(268,240)"/>
<path d="M0 0 C1.57602923 0.00056958 1.57602923 0.00056958 3.18389744 0.00115067 C4.39114335 -0.00084038 5.59838927 -0.00283143 6.8422184 -0.00488281 C8.1991431 -0.00202922 9.55606761 0.00091638 10.91299194 0.00394398 C12.34103612 0.0035084 13.76908022 0.00263375 15.19712389 0.00135481 C19.13981918 -0.00089283 23.08248758 0.00313479 27.02517945 0.00813287 C31.26991864 0.01243336 35.51465621 0.01099124 39.75939697 0.0102306 C47.11985458 0.00970511 54.48030335 0.01285453 61.84075874 0.01846844 C72.48286835 0.02658004 83.12497366 0.02919831 93.76708602 0.03045643 C111.03133553 0.03264749 128.29558032 0.03930902 145.55982727 0.04875904 C162.33489213 0.05793178 179.10995572 0.06501329 195.88502258 0.06926686 C196.91826033 0.06952958 197.95149807 0.0697923 199.01604605 0.07006299 C204.19926407 0.07136798 209.38248209 0.0726317 214.56570011 0.07387489 C257.59621647 0.08424917 300.62672768 0.10186894 343.65723938 0.1241985 C343.65723938 2.7641985 343.65723938 5.4041985 343.65723938 8.1241985 C299.59590736 8.14706297 255.53457596 8.16469575 211.47323919 8.17526383 C206.27716698 8.17651461 201.08109478 8.17780892 195.88502258 8.17913014 C194.85053218 8.17939245 193.81604178 8.17965476 192.75020318 8.17992502 C175.97670731 8.18428213 159.20321485 8.1921699 142.42972101 8.20135129 C125.23205767 8.2106867 108.03439613 8.21625387 90.83673036 8.21828699 C80.21586048 8.21966245 69.59500023 8.2240143 58.97413331 8.23211496 C51.70141879 8.23738103 44.42870928 8.23900311 37.15599299 8.23769987 C32.95343451 8.23705627 28.75089292 8.23807646 24.5483374 8.24340397 C20.70741491 8.24823779 16.86652083 8.24853727 13.02559709 8.24509739 C11.62989482 8.24467168 10.23419084 8.24596757 8.83849198 8.24908168 C6.9536312 8.25304551 5.06875982 8.25035493 3.18389744 8.24724633 C2.13321128 8.24762605 1.08252513 8.24800577 0 8.24839699 C-2.34276062 8.1241985 -2.34276062 8.1241985 -3.34276062 7.1241985 C-3.46776062 4.1241985 -3.46776062 4.1241985 -3.34276062 1.1241985 C-2.34276062 0.1241985 -2.34276062 0.1241985 0 0 Z " fill="#1B1C1C" transform="translate(125.34276062250137,322.8758015036583)"/>
<path d="M0 0 C1.45742463 -0.08096803 2.91612807 -0.13917774 4.375 -0.1875 C5.18710938 -0.22230469 5.99921875 -0.25710938 6.8359375 -0.29296875 C7.55007812 -0.19628906 8.26421875 -0.09960938 9 0 C11.42479736 3.63719605 11.38662577 5.85703482 11.625 10.1875 C11.69976562 11.45980469 11.77453125 12.73210937 11.8515625 14.04296875 C11.90054688 15.01878906 11.94953125 15.99460937 12 17 C12.9590625 17.2165625 12.9590625 17.2165625 13.9375 17.4375 C16 18 16 18 17 19 C17.04063832 20.66617115 17.042721 22.33388095 17 24 C18.65 24 20.3 24 22 24 C22 21.69 22 19.38 22 17 C24.64 17 27.28 17 30 17 C30 16.01 30 15.02 30 14 C32.64 14 35.28 14 38 14 C38.495 15.485 38.495 15.485 39 17 C42.63 17.33 46.26 17.66 50 18 C50 22.62 50 27.24 50 32 C51.2375 31.979375 52.475 31.95875 53.75 31.9375 C56.6640825 31.93233319 59.20953327 32.06984442 62 33 C62 34.98 62 36.96 62 39 C63.47968324 38.85950482 64.95874516 38.71245174 66.4375 38.5625 C67.26121094 38.48128906 68.08492188 38.40007812 68.93359375 38.31640625 C70.98662025 38.21069185 70.98662025 38.21069185 72 37 C74.5 36.875 74.5 36.875 77 37 C77.33 37.33 77.66 37.66 78 38 C79.77869726 38.15764405 81.56318476 38.25100677 83.34765625 38.31640625 C84.42724609 38.35830078 85.50683594 38.40019531 86.61914062 38.44335938 C87.75544922 38.48267578 88.89175781 38.52199219 90.0625 38.5625 C91.20267578 38.60568359 92.34285156 38.64886719 93.51757812 38.69335938 C96.34492195 38.79982839 99.17235738 38.90184207 102 39 C102 39.33 102 39.66 102 40 C94.08 40 86.16 40 78 40 C78 40.66 78 41.32 78 42 C75.03 42 72.06 42 69 42 C69 41.34 69 40.68 69 40 C67.68 40 66.36 40 65 40 C65 40.66 65 41.32 65 42 C60.05 42 55.1 42 50 42 C50 41.01 50 40.02 50 39 C28.55 39 7.1 39 -15 39 C-15 28.77 -15 18.54 -15 8 C-14.67 9.32 -14.34 10.64 -14 12 C-10.04 12.33 -6.08 12.66 -2 13 C-2 9.37 -2 5.74 -2 2 C-1.34 2 -0.68 2 0 2 C0 1.34 0 0.68 0 0 Z " fill="#161213" transform="translate(194,278)"/>
<path d="M0 0 C1.32 0 2.64 0 4 0 C4.495 7.425 4.495 7.425 5 15 C3.35 15.33 1.7 15.66 0 16 C0 18.64 0 21.28 0 24 C-1.65 24 -3.3 24 -5 24 C-5 24.66 -5 25.32 -5 26 C-4.39414062 25.9278125 -3.78828125 25.855625 -3.1640625 25.78125 C12.22863741 24.07621247 12.22863741 24.07621247 18 26 C18.66 26.66 19.32 27.32 20 28 C19.76072994 30.34484656 19.4054103 32.67810464 19 35 C18.77637635 37.35961501 18.57001781 39.71956713 18.37890625 42.08203125 C18 44 18 44 16 46 C14.68 46 13.36 46 12 46 C11.505 46.99 11.505 46.99 11 48 C11 47.34 11 46.68 11 46 C9.71367676 46.01571045 9.71367676 46.01571045 8.40136719 46.03173828 C5.21078487 46.06588296 2.02029588 46.09092959 -1.17041016 46.10986328 C-2.54967315 46.11990253 -3.92891496 46.13353677 -5.30810547 46.15087891 C-7.2938514 46.17521754 -9.2797545 46.18543255 -11.265625 46.1953125 C-13.05661621 46.21102295 -13.05661621 46.21102295 -14.88378906 46.22705078 C-17.85798164 46.01034762 -19.50318379 45.56186122 -22 44 C-22 43.34 -22 42.68 -22 42 C-23.485 41.814375 -23.485 41.814375 -25 41.625 C-29.08880024 41.04805273 -33.00861887 40.05036346 -37 39 C-37.33 36.36 -37.66 33.72 -38 31 C-36.35 31.33 -34.7 31.66 -33 32 C-33 30.35 -33 28.7 -33 27 C-34.65 27 -36.3 27 -38 27 C-38 25.02 -38 23.04 -38 21 C-37.34 21 -36.68 21 -36 21 C-36.185625 20.05125 -36.37125 19.1025 -36.5625 18.125 C-37 15 -37 15 -36 13 C-36.66 13 -37.32 13 -38 13 C-38 10.36 -38 7.72 -38 5 C-25.79 4.67 -13.58 4.34 -1 4 C-0.67 2.68 -0.34 1.36 0 0 Z " fill="#0A0A0A" transform="translate(283,268)"/>
<path d="M0 0 C15 0 15 0 21 3 C24.4868071 6.67032326 25.28363464 9.57630842 25.4375 14.5 C25.32986228 18.14011195 25.12702231 19.77418257 23.3125 23 C21.42668925 27.31042458 22.81334463 30.16476021 24.23828125 34.51171875 C25 37 25 37 25 40 C22.03 40 19.06 40 16 40 C15.34 36.7 14.68 33.4 14 30 C12.35 30 10.7 30 9 30 C9 33.3 9 36.6 9 40 C6.03 40 3.06 40 0 40 C0 26.8 0 13.6 0 0 Z " fill="#0D0D0D" transform="translate(391,338)"/>
<path d="M0 0 C1.32 0 2.64 0 4 0 C4 4.62 4 9.24 4 14 C1.36 14 -1.28 14 -4 14 C-4 15.65 -4 17.3 -4 19 C-3.67 18.34 -3.34 17.68 -3 17 C-2.34 17 -1.68 17 -1 17 C-1 18.98 -1 20.96 -1 23 C-2.32 23 -3.64 23 -5 23 C-5.495 24.485 -5.495 24.485 -6 26 C-11.98991614 26.21781513 -17.85625943 25.84695485 -23.8125 25.25 C-24.92419556 25.1574292 -24.92419556 25.1574292 -26.05834961 25.06298828 C-29.51488479 24.68516907 -31.68975762 24.24129963 -34.4609375 22.0859375 C-36.24262835 19.67115853 -36.76481752 17.97897804 -37 15 C-36.67 14.34 -36.34 13.68 -36 13 C-36.66 13 -37.32 13 -38 13 C-38 10.36 -38 7.72 -38 5 C-25.79 4.67 -13.58 4.34 -1 4 C-0.67 2.68 -0.34 1.36 0 0 Z " fill="#1E1E1E" transform="translate(283,268)"/>
<path d="M0 0 C17 0 17 0 23 4 C25.85600326 8.41382322 25.52919492 13.91972875 25 19 C23.44359665 23.2801092 21.87487204 25.6396026 18 28 C15.421875 28.29296875 15.421875 28.29296875 12.75 28.1875 C11.1825 28.125625 9.615 28.06375 8 28 C8 31.63 8 35.26 8 39 C5.36 39 2.72 39 0 39 C0 26.13 0 13.26 0 0 Z " fill="#050505" transform="translate(173,339)"/>
<path d="M0 0 C17 0 17 0 22 3 C25.46332712 7.79215656 24.43929751 14.39372697 24 20 C22.70755381 24.16454882 21.82402992 25.43816142 18.25 27.875 C14.64084775 29.12432193 11.79285735 29.22757144 8 29 C8 32.3 8 35.6 8 39 C5.36 39 2.72 39 0 39 C0 26.13 0 13.26 0 0 Z " fill="#030303" transform="translate(332,339)"/>
<path d="M0 0 C0.99 0.33 1.98 0.66 3 1 C3 1.66 3 2.32 3 3 C11.58 3 20.16 3 29 3 C29 3.66 29 4.32 29 5 C25.32612505 5.85298376 21.9552607 6.10789471 18.1875 6.0625 C17.21167969 6.05347656 16.23585938 6.04445313 15.23046875 6.03515625 C14.12638672 6.01775391 14.12638672 6.01775391 13 6 C13 6.66 13 7.32 13 8 C10.69 8.33 8.38 8.66 6 9 C6 9.33 6 9.66 6 10 C-3.9 10.495 -3.9 10.495 -14 11 C-13.67 11.66 -13.34 12.32 -13 13 C-8.05 13 -3.1 13 2 13 C-1.61136212 14.80568106 -2.544531 15.24851563 -6.25 15.125 C-8.10625 15.063125 -8.10625 15.063125 -10 15 C-9.37466625 17.52363988 -9.37466625 17.52363988 -8 20 C-5.45224694 20.89386164 -5.45224694 20.89386164 -3 21 C-3.66 21.99 -4.32 22.98 -5 24 C-1.32856832 25.22381056 0.19003607 24.59631158 3.875 23.5625 C7.72056734 22.48786151 11.00070803 21.81553081 15 22 C12 24 12 24 9 25 C9.99 26.98 10.98 28.96 12 31 C15.96 31 19.92 31 24 31 C24.33 30.34 24.66 29.68 25 29 C25 32.3 25 35.6 25 39 C22.69 38.67 20.38 38.34 18 38 C17.34 39.98 16.68 41.96 16 44 C14.68 44 13.36 44 12 44 C12 42.35 12 40.7 12 39 C10.68 39 9.36 39 8 39 C8 37.02 8 35.04 8 33 C1.07 32.505 1.07 32.505 -6 32 C-6 35.3 -6 38.6 -6 42 C-7.32 42 -8.64 42 -10 42 C-10 42.66 -10 43.32 -10 44 C-13.63 44 -17.26 44 -21 44 C-20.67 42.35 -20.34 40.7 -20 39 C-18.35 39 -16.7 39 -15 39 C-14.814375 37.700625 -14.62875 36.40125 -14.4375 35.0625 C-14.33308594 34.33160156 -14.22867187 33.60070312 -14.12109375 32.84765625 C-14.08113281 32.23792969 -14.04117187 31.62820313 -14 31 C-14.33 30.67 -14.66 30.34 -15 30 C-15.33 31.32 -15.66 32.64 -16 34 C-16 32.35 -16 30.7 -16 29 C-12.49223216 27.39644899 -9.85645121 26.77963136 -6 27 C-6.33 26.34 -6.66 25.68 -7 25 C-9.97 25 -12.94 25 -16 25 C-16.33 25.66 -16.66 26.32 -17 27 C-17.47985967 25.72942818 -17.9588593 24.45853152 -18.4375 23.1875 C-18.70433594 22.47980469 -18.97117187 21.77210938 -19.24609375 21.04296875 C-19.86225186 19.37327604 -20.43719235 17.68842296 -21 16 C-20.34 16 -19.68 16 -19 16 C-19 16.66 -19 17.32 -19 18 C-18.34 18 -17.68 18 -17 18 C-16.34 19.32 -15.68 20.64 -15 22 C-13.35 22 -11.7 22 -10 22 C-13.41500427 15.44774182 -13.41500427 15.44774182 -19.0703125 11.23046875 C-23.37157431 11.14051841 -26.7177228 12.29694819 -30 15 C-31.32793606 17.06700655 -31.32793606 17.06700655 -32 19 C-30.35 18.34 -28.7 17.68 -27 17 C-26.34 17.99 -25.68 18.98 -25 20 C-25.78375 20.144375 -26.5675 20.28875 -27.375 20.4375 C-29.96421018 20.87798925 -29.96421018 20.87798925 -32 22 C-32 21.34 -32 20.68 -32 20 C-32.99 20 -33.98 20 -35 20 C-34.84817368 17.34303932 -34.52675976 15.55765476 -32.66796875 13.58984375 C-28.21598068 9.87443765 -25.81542632 8.87722322 -20.1171875 8.68359375 C-18.36728516 8.62075195 -18.36728516 8.62075195 -16.58203125 8.55664062 C-14.74705078 8.49766602 -14.74705078 8.49766602 -12.875 8.4375 C-11.64394531 8.39431641 -10.41289062 8.35113281 -9.14453125 8.30664062 C-6.09647147 8.20031296 -3.0483281 8.09828219 0 8 C0 6.68 0 5.36 0 4 C0.66 4 1.32 4 2 4 C2 3.34 2 2.68 2 2 C1.34 2 0.68 2 0 2 C0 1.34 0 0.68 0 0 Z " fill="#7E7E7E" transform="translate(334,273)"/>
<path d="M0 0 C4.29 0 8.58 0 13 0 C14.00647044 4.42701683 15.00301616 8.85611245 15.99072266 13.28735352 C16.32756994 14.79218565 16.66704658 16.29643187 17.00927734 17.80004883 C17.50282503 19.9706514 17.98664637 22.14323694 18.46875 24.31640625 C18.62186646 24.98023819 18.77498291 25.64407013 18.93273926 26.32801819 C19.87217521 30.61903841 20.13898822 34.61442538 20 39 C17.03 39 14.06 39 11 39 C10.67 36.36 10.34 33.72 10 31 C7.69 31 5.38 31 3 31 C2.67 33.64 2.34 36.28 2 39 C-0.97 39 -3.94 39 -7 39 C-6.27293095 30.68932463 -4.61046563 22.59790814 -2.9375 14.4375 C-2.65263437 13.03327619 -2.36812634 11.62897979 -2.08398438 10.22460938 C-1.39409768 6.81540252 -0.69690643 3.40780851 0 0 Z " fill="#060606" transform="translate(367,339)"/>
<path d="M0 0 C2.97 0 5.94 0 9 0 C9.33 3.3 9.66 6.6 10 10 C11.65 7.03 13.3 4.06 15 1 C17.97 1 20.94 1 24 1 C23.39929688 2.08539063 22.79859375 3.17078125 22.1796875 4.2890625 C21.41040414 5.73381417 20.64223293 7.17915841 19.875 8.625 C19.47667969 9.33785156 19.07835937 10.05070312 18.66796875 10.78515625 C16.36890555 15.1472745 16.36890555 15.1472745 16.5 19.96875 C16.995 20.9690625 17.49 21.969375 18 23 C18.64901046 24.43463677 19.29739921 25.86955489 19.9453125 27.3046875 C20.66841265 28.82977145 21.39504477 30.35318521 22.125 31.875 C22.49753906 32.65875 22.87007813 33.4425 23.25390625 34.25 C24.16618997 36.16813499 25.08266984 38.08427329 26 40 C22.7 40 19.4 40 16 40 C14.02 35.71 12.04 31.42 10 27 C9.67 31.29 9.34 35.58 9 40 C6.03 40 3.06 40 0 40 C0 26.8 0 13.6 0 0 Z " fill="#0B0B0B" transform="translate(420,338)"/>
<path d="M0 0 C3.12723497 -0.49054666 5.89519245 -0.69572611 9 0 C11.34888006 2.34888006 12.77164755 4.92603256 14 8 C14 8.66 14 9.32 14 10 C14.66 10 15.32 10 16 10 C16.268125 9.278125 16.53625 8.55625 16.8125 7.8125 C17.204375 6.884375 17.59625 5.95625 18 5 C18.5259375 3.6078125 18.5259375 3.6078125 19.0625 2.1875 C21 0 21 0 23.1953125 -0.3125 C25.48414294 -0.3125 27.72192731 -0.21491252 30 0 C28.8774654 2.27208206 27.75208479 4.54267645 26.625 6.8125 C26.30789063 7.45509766 25.99078125 8.09769531 25.6640625 8.75976562 C24.23541389 11.63194461 22.78214527 14.3267821 21 17 C21.206263 21.98618393 24.10085654 26.0580436 26.5625 30.25 C31 37.89946889 31 37.89946889 31 39 C27.81250449 39.6374991 25.15732488 39.86248875 22 39 C19.09644035 35.76209105 16 31.49032639 16 27 C15.34 27 14.68 27 14 27 C13.7525 27.86625 13.505 28.7325 13.25 29.625 C11.84822864 33.40978268 10.76186534 36.02568348 8 39 C4.93847243 39.50761079 2.07329313 39.35461075 -1 39 C0.10164118 36.76955389 1.20621894 34.54064354 2.3125 32.3125 C2.62123047 31.68666016 2.92996094 31.06082031 3.24804688 30.41601562 C4.64156152 27.61431776 6.03502596 24.94833861 7.79296875 22.35546875 C9.19033787 20.09092055 9.19033787 20.09092055 8.94140625 17.640625 C7.67873408 14.09885576 5.86527031 10.95962103 3.9375 7.75 C0 1.1 0 1.1 0 0 Z " fill="#060606" transform="translate(297,339)"/>
<path d="M0 0 C1.43859375 -0.00773437 1.43859375 -0.00773437 2.90625 -0.015625 C5.5 0.25 5.5 0.25 8.5 2.25 C8.17 4.23 7.84 6.21 7.5 8.25 C6.80132812 8.23839844 6.10265625 8.22679687 5.3828125 8.21484375 C4.47273438 8.20582031 3.56265625 8.19679688 2.625 8.1875 C1.72007812 8.17589844 0.81515625 8.16429687 -0.1171875 8.15234375 C-2.5168585 8.08750743 -2.5168585 8.08750743 -4.5 9.25 C-4.48733272 11.15394327 -4.48733272 11.15394327 -3.5 13.25 C-0.61086322 15.13618452 -0.61086322 15.13618452 2.875 16.75 C10.42439732 20.43263284 10.42439732 20.43263284 12.5 24.25 C13.31231275 27.97310011 13.2948786 31.64325821 11.5859375 35.09765625 C8.77452437 38.78876962 5.97376605 40.35524679 1.5 41.25 C-4.58232004 41.92581334 -8.37843941 40.22981707 -13.5 37.25 C-13.5 33.25 -13.5 33.25 -11.5 30.25 C-10.88125 30.58 -10.2625 30.91 -9.625 31.25 C-5.23788488 32.65387684 -1.06848573 32.40967523 3.5 32.25 C3.80269558 29.85764765 3.80269558 29.85764765 3.5 27.25 C1.98242534 25.70517306 1.98242534 25.70517306 -0.125 24.6875 C-0.85332031 24.27371094 -1.58164063 23.85992187 -2.33203125 23.43359375 C-3.04746094 23.04300781 -3.76289063 22.65242188 -4.5 22.25 C-8.71851253 19.70297357 -11.52772069 17.85198506 -13.5 13.25 C-14 10.25 -14 10.25 -13.5 7.25 C-9.4565222 2.44153991 -6.32051461 -0.03398126 0 0 Z " fill="#090909" transform="translate(156.5,337.75)"/>
<path d="M0 0 C-0.66 0 -1.32 0 -2 0 C-1.65555119 2.47266765 -1.65555119 2.47266765 -1 5 C-0.34 5.33 0.32 5.66 1 6 C1 6.66 1 7.32 1 8 C1.99 7.67 2.98 7.34 4 7 C4.33 6.34 4.66 5.68 5 5 C5.99 5 6.98 5 8 5 C8 7.64 8 10.28 8 13 C8.99 13.33 9.98 13.66 11 14 C9.68 14.33 8.36 14.66 7 15 C6.34 17.31 5.68 19.62 5 22 C4.02389771 21.9685791 4.02389771 21.9685791 3.02807617 21.93652344 C0.08137445 21.85340662 -2.8650809 21.80135516 -5.8125 21.75 C-6.83666016 21.71648437 -7.86082031 21.68296875 -8.91601562 21.6484375 C-10.39038086 21.62910156 -10.39038086 21.62910156 -11.89453125 21.609375 C-12.80050049 21.58842773 -13.70646973 21.56748047 -14.63989258 21.54589844 C-17.17770688 21.78775612 -17.17770688 21.78775612 -18.8190918 24.02441406 C-19.2087915 24.67635742 -19.59849121 25.32830078 -20 26 C-20 24.35 -20 22.7 -20 21 C-21.65 20.67 -23.3 20.34 -25 20 C-25.33 20.66 -25.66 21.32 -26 22 C-26.33 20.35 -26.66 18.7 -27 17 C-28.98 16.67 -30.96 16.34 -33 16 C-33 11.05 -33 6.1 -33 1 C-32.01 1.495 -32.01 1.495 -31 2 C-31.33 4.97 -31.66 7.94 -32 11 C-29.53751347 10.40984204 -27.08096562 9.80373225 -24.625 9.1875 C-23.92632812 9.02185547 -23.22765625 8.85621094 -22.5078125 8.68554688 C-17.96323061 7.56828793 -17.96323061 7.56828793 -15 4 C-15 4.99 -15 5.98 -15 7 C-14.34 7 -13.68 7 -13 7 C-12.67 6.01 -12.34 5.02 -12 4 C-12 4.99 -12 5.98 -12 7 C-11.01 6.67 -10.02 6.34 -9 6 C-6.3125 6.9375 -6.3125 6.9375 -4 8 C-4 7.34 -4 6.68 -4 6 C-4.99 5.67 -5.98 5.34 -7 5 C-6.67 3.35 -6.34 1.7 -6 0 C-3 -1 -3 -1 0 0 Z " fill="#060606" transform="translate(261,226)"/>
<path d="M0 0 C6.27 0 12.54 0 19 0 C19 2.64 19 5.28 19 8 C15.37 8 11.74 8 8 8 C8 10.64 8 13.28 8 16 C10.64 16 13.28 16 16 16 C15.34 18.31 14.68 20.62 14 23 C12.02 23 10.04 23 8 23 C8 26.3 8 29.6 8 33 C11.63 33 15.26 33 19 33 C19 35.31 19 37.62 19 40 C12.73 40 6.46 40 0 40 C0 26.8 0 13.6 0 0 Z " fill="#0B0B0B" transform="translate(273,338)"/>
<path d="M0 0 C1.57514925 3.15029849 0.37291152 5.69003659 -0.375 9.0625 C-0.65085937 10.33222656 -0.92671875 11.60195313 -1.2109375 12.91015625 C-2 16 -2 16 -3 17 C-4.49149905 17.15764116 -5.98990044 17.25102184 -7.48828125 17.31640625 C-8.88216064 17.3793689 -8.88216064 17.3793689 -10.30419922 17.44360352 C-11.29693848 17.48283936 -12.28967773 17.5220752 -13.3125 17.5625 C-14.80934326 17.62618774 -14.80934326 17.62618774 -16.33642578 17.69116211 C-23.22885413 17.96961577 -30.10181702 18.13097816 -37 18 C-36.71517632 16.58194169 -36.42181856 15.16559621 -36.125 13.75 C-35.96257812 12.96109375 -35.80015625 12.1721875 -35.6328125 11.359375 C-34.43674293 6.89995514 -34.43674293 6.89995514 -33 5 C-27.5571293 2.46196573 -22.4389753 1.40207041 -16.5 0.8125 C-15.79230469 0.73064453 -15.08460938 0.64878906 -14.35546875 0.56445312 C-9.54774648 0.04149248 -4.83486168 -0.07078063 0 0 Z " fill="#F9F9F9" transform="translate(287,250)"/>
<path d="M0 0 C2.84864093 2.67664751 5.04659857 5.61817377 7 9 C7 9.66 7 10.32 7 11 C5.02 11.33 3.04 11.66 1 12 C0.67 10.35 0.34 8.7 0 7 C-0.66 7 -1.32 7 -2 7 C-0.60240095 10.54518884 -0.60240095 10.54518884 1 14 C1.66 13.67 2.32 13.34 3 13 C5.3329866 12.95977609 7.66706666 12.95679753 10 13 C10.33 13.99 10.66 14.98 11 16 C7.7 16.66 4.4 17.32 1 18 C2.32 18.66 3.64 19.32 5 20 C4.34 20 3.68 20 3 20 C2.67 22.64 2.34 25.28 2 28 C0.35 28 -1.3 28 -3 28 C-3 28.66 -3 29.32 -3 30 C-3.66 30 -4.32 30 -5 30 C-5.66 31.32 -6.32 32.64 -7 34 C-10.375 34.1875 -10.375 34.1875 -14 34 C-17.11393748 29.32909378 -16.47772893 24.47216778 -16 19 C-14.64032208 15.30944564 -13.12677706 12.44704291 -10 10 C-9.34 10 -8.68 10 -8 10 C-8 9.34 -8 8.68 -8 8 C-11.01031744 7.06576355 -11.86650268 6.95550089 -15 8 C-14.09126425 4.94334338 -13.32469175 3.27694297 -10.875 1.1875 C-7.1038441 -0.37015135 -3.91642657 -1.31532817 0 0 Z " fill="#EEEEEE" transform="translate(317,284)"/>
<path d="M0 0 C5.94 0 11.88 0 18 0 C18 2.31 18 4.62 18 7 C14.7 7 11.4 7 8 7 C8 9.64 8 12.28 8 15 C10.31 15 12.62 15 15 15 C14.125 20.875 14.125 20.875 13 22 C11.35 22 9.7 22 8 22 C8 25.3 8 28.6 8 32 C11.3 32 14.6 32 18 32 C18 34.31 18 36.62 18 39 C12.06 39 6.12 39 0 39 C0 26.13 0 13.26 0 0 Z " fill="#000000" transform="translate(202,339)"/>
<path d="M0 0 C0.93972656 0.17660156 1.87945312 0.35320312 2.84765625 0.53515625 C3.94400391 0.79619141 3.94400391 0.79619141 5.0625 1.0625 C5.81660156 1.23910156 6.57070313 1.41570312 7.34765625 1.59765625 C7.89292969 1.73042969 8.43820312 1.86320313 9 2 C9 2.99 9 3.98 9 5 C9.99 5.33 10.98 5.66 12 6 C11.01 6 10.02 6 9 6 C9 6.66 9 7.32 9 8 C9.99 8 10.98 8 12 8 C12 9.32 12 10.64 12 12 C11.34 12 10.68 12 10 12 C9.67 12.99 9.34 13.98 9 15 C8.01 15 7.02 15 6 15 C6 14.34 6 13.68 6 13 C5.01 12.67 4.02 12.34 3 12 C3 10.35 3 8.7 3 7 C1.68 7.33 0.36 7.66 -1 8 C-1 9.32 -1 10.64 -1 12 C-0.34 12.33 0.32 12.66 1 13 C1 13.66 1 14.32 1 15 C0.35675781 14.88140625 -0.28648437 14.7628125 -0.94921875 14.640625 C-8.1204993 13.61761779 -13.35713434 14.65413685 -20.15234375 17.08984375 C-23 18 -23 18 -27 18 C-26.98259766 17.07767578 -26.98259766 17.07767578 -26.96484375 16.13671875 C-26.95582031 15.32847656 -26.94679687 14.52023438 -26.9375 13.6875 C-26.92589844 12.88699219 -26.91429687 12.08648437 -26.90234375 11.26171875 C-26.90342145 8.83138666 -26.90342145 8.83138666 -28 6 C-25.03313346 4.78005198 -22.05018388 3.60543301 -19.0625 2.4375 C-18.23169922 2.09525391 -17.40089844 1.75300781 -16.54492188 1.40039062 C-10.6027793 -0.88860593 -6.22298056 -1.2957798 0 0 Z " fill="#424242" transform="translate(256,219)"/>
<path d="M0 0 C1.17369141 -0.00386719 1.17369141 -0.00386719 2.37109375 -0.0078125 C4.5625 0.125 4.5625 0.125 7.5625 1.125 C7.2325 3.435 6.9025 5.745 6.5625 8.125 C3.9225 8.455 1.2825 8.785 -1.4375 9.125 C-1.4375 16.715 -1.4375 24.305 -1.4375 32.125 C1.8625 32.125 5.1625 32.125 8.5625 32.125 C8.8925 34.435 9.2225 36.745 9.5625 39.125 C5.33735172 41.23757414 1.21880763 41.88892547 -3.4375 41.125 C-8.9375 38.125 -8.9375 38.125 -10.4375 35.125 C-10.69487715 31.03927091 -10.70849847 26.95183513 -10.73266602 22.85864258 C-10.74985006 20.83019971 -10.79373375 18.80340006 -10.83789062 16.77539062 C-10.85045898 14.85049805 -10.85045898 14.85049805 -10.86328125 12.88671875 C-10.87786377 11.71069092 -10.89244629 10.53466309 -10.9074707 9.32299805 C-10.34389629 5.48805714 -9.12336386 3.8639874 -6.4375 1.125 C-4.08479407 -0.05135297 -2.616748 -0.00859359 0 0 Z " fill="#090909" transform="translate(235.4375,337.875)"/>
<path d="M0 0 C2.4375 0.6875 2.4375 0.6875 5 2 C5.66015625 4.58203125 5.66015625 4.58203125 6 7 C6.56807373 6.98952637 7.13614746 6.97905273 7.72143555 6.96826172 C30.16042751 6.60989108 30.16042751 6.60989108 40 9 C41 10 41 10 41.0625 12.5625 C41.041875 13.366875 41.02125 14.17125 41 15 C40.505 13.515 40.505 13.515 40 12 C38.68 12 37.36 12 36 12 C36.495 19.425 36.495 19.425 37 27 C30.84765625 27.09765625 30.84765625 27.09765625 29 27 C28 26 28 26 27.90234375 24.15234375 C27.93489583 22.1015625 27.96744792 20.05078125 28 18 C25.36 17.67 22.72 17.34 20 17 C19.505 14.03 19.505 14.03 19 11 C1.79892916 10.94791071 1.79892916 10.94791071 -14 16 C-14.66 16.99 -15.32 17.98 -16 19 C-16 17.68 -16 16.36 -16 15 C-16.9075 15.33 -17.815 15.66 -18.75 16 C-22 17 -22 17 -26 17 C-25.34 15.68 -24.68 14.36 -24 13 C-23.30132812 13.02320313 -22.60265625 13.04640625 -21.8828125 13.0703125 C-20.51769531 13.09738281 -20.51769531 13.09738281 -19.125 13.125 C-18.22007812 13.14820313 -17.31515625 13.17140625 -16.3828125 13.1953125 C-13.81193006 13.24324836 -13.81193006 13.24324836 -12 11 C-9.26498322 10.04868981 -6.51922955 9.15865347 -3.75 8.3125 C-0.9256497 6.19423727 -0.73842136 3.32289614 0 0 Z " fill="#131313" transform="translate(268,240)"/>
<path d="M0 0 C7.26 0 14.52 0 22 0 C22 2.31 22 4.62 22 7 C19.69 7 17.38 7 15 7 C15 17.56 15 28.12 15 39 C12.36 39 9.72 39 7 39 C7 28.44 7 17.88 7 7 C4.69 7 2.38 7 0 7 C0 4.69 0 2.38 0 0 Z " fill="#020202" transform="translate(248,339)"/>
<path d="M0 0 C1.32 0 2.64 0 4 0 C5.79065093 6.122186 6.28082201 11.57686848 6.1875 17.9375 C6.18685547 18.79923828 6.18621094 19.66097656 6.18554688 20.54882812 C6.14079241 26.85920759 6.14079241 26.85920759 5 28 C-1.64213241 28.96073701 -8.30151095 29.1098113 -15 29 C-15.85298376 25.32612505 -16.10789471 21.9552607 -16.0625 18.1875 C-16.05347656 17.21167969 -16.04445313 16.23585938 -16.03515625 15.23046875 C-16.02355469 14.49441406 -16.01195312 13.75835937 -16 13 C-15.67 13.66 -15.34 14.32 -15 15 C-14.01 15 -13.02 15 -12 15 C-12 11.7 -12 8.4 -12 5 C-10.68 5.33 -9.36 5.66 -8 6 C-7.67 8.64 -7.34 11.28 -7 14 C-4.36 14.33 -1.72 14.66 1 15 C0.67 14.01 0.34 13.02 0 12 C-0.068991 9.93854893 -0.08467727 7.87498599 -0.0625 5.8125 C-0.05347656 4.72582031 -0.04445313 3.63914063 -0.03515625 2.51953125 C-0.02355469 1.68808594 -0.01195312 0.85664063 0 0 Z " fill="#040404" transform="translate(304,252)"/>
<path d="M0 0 C4.62 0 9.24 0 14 0 C14.66 1.32 15.32 2.64 16 4 C18.17208588 4.91160093 18.17208588 4.91160093 20.625 5.25 C21.44226563 5.39953125 22.25953125 5.5490625 23.1015625 5.703125 C23.72804688 5.80109375 24.35453125 5.8990625 25 6 C25.33 7.32 25.66 8.64 26 10 C24.54462432 10.83848804 23.08559627 11.67063934 21.625 12.5 C20.81289063 12.9640625 20.00078125 13.428125 19.1640625 13.90625 C17 15 17 15 15 15 C15 16.98 15 18.96 15 21 C14.34 21 13.68 21 13 21 C13 21.66 13 22.32 13 23 C10.69 23 8.38 23 6 23 C6 18.71 6 14.42 6 10 C5.34 10 4.68 10 4 10 C3.67 11.32 3.34 12.64 3 14 C2.01 14 1.02 14 0 14 C-0.19532961 12.2300132 -0.38098882 10.45895721 -0.5625 8.6875 C-0.66691406 7.70136719 -0.77132813 6.71523438 -0.87890625 5.69921875 C-1 3 -1 3 0 0 Z " fill="#F6F6F6" transform="translate(310,252)"/>
<path d="M0 0 C0.99 1.98 1.98 3.96 3 6 C6.96 6 10.92 6 15 6 C15.33 5.34 15.66 4.68 16 4 C16 7.3 16 10.6 16 14 C13.69 13.67 11.38 13.34 9 13 C8.34 14.98 7.68 16.96 7 19 C5.68 19 4.36 19 3 19 C3 17.35 3 15.7 3 14 C1.68 14 0.36 14 -1 14 C-1 12.02 -1 10.04 -1 8 C-7.93 7.505 -7.93 7.505 -15 7 C-15 10.3 -15 13.6 -15 17 C-16.32 17 -17.64 17 -19 17 C-19 17.66 -19 18.32 -19 19 C-22.63 19 -26.26 19 -30 19 C-29.67 17.35 -29.34 15.7 -29 14 C-27.35 14 -25.7 14 -24 14 C-23.67 11.36 -23.34 8.72 -23 6 C-18.33333333 4.66666667 -13.66666667 3.33333333 -9 2 C-8.35434082 1.80889648 -7.70868164 1.61779297 -7.04345703 1.42089844 C-2.21064815 0 -2.21064815 0 0 0 Z " fill="#F8F8F8" transform="translate(343,298)"/>
<path d="M0 0 C0 0.66 0 1.32 0 2 C-2.35344806 2.33923576 -4.7075484 2.67150534 -7.0625 3 C-8.04766602 3.14308594 -8.04766602 3.14308594 -9.05273438 3.2890625 C-13.40138763 3.88887674 -17.61329071 4.09127093 -22 4 C-22 6.31 -22 8.62 -22 11 C-19.36 11 -16.72 11 -14 11 C-13.67 8.69 -13.34 6.38 -13 4 C-12 7 -12 7 -13 17 C-19.6 18.32 -26.2 19.64 -33 21 C-33.66 20.01 -34.32 19.02 -35 18 C-34.67 17.67 -34.34 17.34 -34 17 C-34.825 16.5875 -35.65 16.175 -36.5 15.75 C-37.325 15.1725 -38.15 14.595 -39 14 C-39 12.68 -39 11.36 -39 10 C-37.68 9.67 -36.36 9.34 -35 9 C-37.31 9 -39.62 9 -42 9 C-42.66 7.68 -43.32 6.36 -44 5 C-35.585 4.505 -35.585 4.505 -27 4 C-27 3.67 -27 3.34 -27 3 C-23.37 3 -19.74 3 -16 3 C-16 2.34 -16 1.68 -16 1 C-14.27111445 0.83044205 -12.54187557 0.66448486 -10.8125 0.5 C-9.84957031 0.4071875 -8.88664062 0.314375 -7.89453125 0.21875 C-5.24812333 0.01875156 -2.65239135 -0.03879183 0 0 Z " fill="#AFAFAF" transform="translate(363,278)"/>
<path d="M0 0 C2.84864093 2.67664751 5.04659857 5.61817377 7 9 C7 9.66 7 10.32 7 11 C5.02 11.33 3.04 11.66 1 12 C0.67 10.35 0.34 8.7 0 7 C-0.66 7 -1.32 7 -2 7 C-0.60240095 10.54518884 -0.60240095 10.54518884 1 14 C1.66 13.67 2.32 13.34 3 13 C5.3329866 12.95977609 7.66706666 12.95679753 10 13 C10.33 13.99 10.66 14.98 11 16 C7.7 16.66 4.4 17.32 1 18 C2.32 18.66 3.64 19.32 5 20 C4.34 20 3.68 20 3 20 C2.67 22.64 2.34 25.28 2 28 C0.35 28 -1.3 28 -3 28 C-3.33 28.66 -3.66 29.32 -4 30 C-3.835 29.21625 -3.67 28.4325 -3.5 27.625 C-2.03531162 18.83326948 -2.03531162 18.83326948 -5.25 11 C-8.43327147 8.61987142 -8.43327147 8.61987142 -12 7 C-12.99 7.33 -13.98 7.66 -15 8 C-14.09126425 4.94334338 -13.32469175 3.27694297 -10.875 1.1875 C-7.1038441 -0.37015135 -3.91642657 -1.31532817 0 0 Z " fill="#0F0F0F" transform="translate(317,284)"/>
<path d="M0 0 C1.40564713 0.00666183 1.40564713 0.00666183 2.83969116 0.01345825 C3.90063995 0.01360931 4.96158875 0.01376038 6.0546875 0.01391602 C7.20367523 0.02423859 8.35266296 0.03456116 9.53646851 0.04519653 C10.71002899 0.04802643 11.88358948 0.05085632 13.0927124 0.05377197 C16.85271262 0.06499548 20.61247739 0.09010411 24.37240601 0.11550903 C26.91667341 0.12553602 29.46094453 0.13466236 32.00521851 0.14285278 C38.25269511 0.1649419 44.50003374 0.19844079 50.74740601 0.24050903 C50.74740601 1.56050903 50.74740601 2.88050903 50.74740601 4.24050903 C29.95740601 4.24050903 9.16740601 4.24050903 -12.25259399 4.24050903 C-12.25259399 3.91050903 -12.25259399 3.58050903 -12.25259399 3.24050903 C-10.97384399 3.11675903 -9.69509399 2.99300903 -8.37759399 2.86550903 C-4.75056688 2.51450641 -3.32609263 0.35512628 0 0 Z " fill="#242525" transform="translate(417.2525939941406,406.7594909667969)"/>
<path d="M0 0 C0.19916016 1.04800781 0.19916016 1.04800781 0.40234375 2.1171875 C0.57894531 3.02726562 0.75554687 3.93734375 0.9375 4.875 C1.11152344 5.77992188 1.28554688 6.68484375 1.46484375 7.6171875 C1.89963701 9.99956317 1.89963701 9.99956317 3 12 C1.68 11.67 0.36 11.34 -1 11 C-1.33 9.68 -1.66 8.36 -2 7 C-3.65 6.67 -5.3 6.34 -7 6 C-7.89385014 9.06462904 -8.13472008 11.81181379 -8.125 15 C-8.12757813 15.845625 -8.13015625 16.69125 -8.1328125 17.5625 C-8.00833711 19.84698944 -7.63877457 21.80991574 -7 24 C-8.27875 24.061875 -9.5575 24.12375 -10.875 24.1875 C-11.95394531 24.23970703 -11.95394531 24.23970703 -13.0546875 24.29296875 C-13.69664062 24.19628906 -14.33859375 24.09960938 -15 24 C-17 21 -17 21 -17 18 C-17.66 17.67 -18.32 17.34 -19 17 C-16.36 16.34 -13.72 15.68 -11 15 C-10.67 11.37 -10.34 7.74 -10 4 C-10.33 5.65 -10.66 7.3 -11 9 C-13.64 9 -16.28 9 -19 9 C-19 6.69 -19 4.38 -19 2 C-12.6221448 0.82706111 -6.49678438 -0.29530838 0 0 Z " fill="#0C0C0C" transform="translate(360,280)"/>
<path d="M0 0 C2.97 0 5.94 0 9 0 C9 0.33 9 0.66 9 1 C7.35 1.33 5.7 1.66 4 2 C4 4.64 4 7.28 4 10 C2.35 10 0.7 10 -1 10 C-1 10.66 -1 11.32 -1 12 C-0.39414062 11.9278125 0.21171875 11.855625 0.8359375 11.78125 C6.91834595 11.1075063 12.88302138 10.88286637 19 11 C16.38058783 12.74627478 14.96175123 13.38722388 12 14 C12 14.99 12 15.98 12 17 C13.65 17 15.3 17 17 17 C17 17.99 17 18.98 17 20 C15.35 20.33 13.7 20.66 12 21 C12 23.31 12 25.62 12 28 C13.98 28 15.96 28 18 28 C18.33 23.05 18.66 18.1 19 13 C19.66 13 20.32 13 21 13 C20.22095672 24.52164009 20.22095672 24.52164009 18 30 C15.36 30 12.72 30 10 30 C9.67 24.72 9.34 19.44 9 14 C7.86304688 14.01160156 6.72609375 14.02320313 5.5546875 14.03515625 C-21.15976365 14.22682423 -21.15976365 14.22682423 -26 11 C-17.92138585 10.90420616 -10.01659634 10.87486367 -2 12 C-1.67 10.68 -1.34 9.36 -1 8 C0.32 8.33 1.64 8.66 3 9 C3 7.02 3 5.04 3 3 C2.34 3 1.68 3 1 3 C0.34 4.32 -0.32 5.64 -1 7 C-0.67 4.69 -0.34 2.38 0 0 Z " fill="#A3A3A3" transform="translate(279,282)"/>
<path d="M0 0 C0.33 0 0.66 0 1 0 C1 1.98 1 3.96 1 6 C2.12148437 6.19916016 2.12148437 6.19916016 3.265625 6.40234375 C4.25046875 6.57894531 5.2353125 6.75554687 6.25 6.9375 C7.71179688 7.19853516 7.71179688 7.19853516 9.203125 7.46484375 C11.49721795 7.90379729 13.74291971 8.40348592 16 9 C16 9.66 16 10.32 16 11 C20.42494549 11.6679163 24.64843603 12.05305557 29.125 12 C35.77925338 11.92512795 42.37171153 12.45812532 49 13 C49.495 14.485 49.495 14.485 50 16 C46.18751574 16.02887236 42.3750593 16.04675492 38.5625 16.0625 C37.47388672 16.07087891 36.38527344 16.07925781 35.26367188 16.08789062 C34.22919922 16.09111328 33.19472656 16.09433594 32.12890625 16.09765625 C31.17056885 16.10289307 30.21223145 16.10812988 29.22485352 16.11352539 C27 16 27 16 26 15 C23.5 14.83333333 23.5 14.83333333 21 15 C20.67 15.33 20.34 15.66 20 16 C18.48071962 16.07179964 16.95832518 16.08392007 15.4375 16.0625 C14.61121094 16.05347656 13.78492188 16.04445313 12.93359375 16.03515625 C11.97646484 16.01775391 11.97646484 16.01775391 11 16 C11 14.02 11 12.04 11 10 C7.04 9.67 3.08 9.34 -1 9 C-0.67 6.03 -0.34 3.06 0 0 Z " fill="#F6F5F5" transform="translate(245,301)"/>
<path d="M0 0 C-2.19196679 1.65097073 -4.39175269 3.27982335 -6.625 4.875 C-9.16566454 7.14822617 -10.01566534 8.77854111 -11 12 C-10.01 12 -9.02 12 -8 12 C-7.67 12.33 -7.34 12.66 -7 13 C-7 12.67 -7 12.34 -7 12 C-5.02 12 -3.04 12 -1 12 C-2.65 13.65 -4.3 15.3 -6 17 C-6.99 16.67 -7.98 16.34 -9 16 C-9 15.01 -9 14.02 -9 13 C-12.63 12.67 -16.26 12.34 -20 12 C-20.33 8.37 -20.66 4.74 -21 1 C-13.95874484 0.27781998 -7.07645981 -0.13815214 0 0 Z " fill="#040404" transform="translate(310,281)"/>
<path d="M0 0 C11.22 0 22.44 0 34 0 C34 0.66 34 1.32 34 2 C43.57 2.33 53.14 2.66 63 3 C63 3.33 63 3.66 63 4 C42.21 4 21.42 4 0 4 C0 2.68 0 1.36 0 0 Z " fill="#2D2F2F" transform="translate(123,407)"/>
<path d="M0 0 C6.93 0 13.86 0 21 0 C21 2.64 21 5.28 21 8 C19.25364835 8.53293835 17.50272348 9.05090663 15.75 9.5625 C14.77546875 9.85253906 13.8009375 10.14257812 12.796875 10.44140625 C10.03756068 10.99249836 8.6087176 10.93789609 6 10 C5.67 8.35 5.34 6.7 5 5 C6.32 4.67 7.64 4.34 9 4 C6.69 4 4.38 4 2 4 C1.34 2.68 0.68 1.36 0 0 Z " fill="#060606" transform="translate(319,283)"/>
<path d="M0 0 C6.4073849 -0.12089405 12.62200673 0.36220067 19 1 C19 5.29 19 9.58 19 14 C16.36 14.33 13.72 14.66 11 15 C11 14.01 11 13.02 11 12 C10.34 12 9.68 12 9 12 C8.01 13.98 7.02 15.96 6 18 C5.01 17.67 4.02 17.34 3 17 C3 16.01 3 15.02 3 14 C3.99 14 4.98 14 6 14 C6 12.02 6 10.04 6 8 C6.99 8 7.98 8 9 8 C9 7.34 9 6.68 9 6 C10.98 5.34 12.96 4.68 15 4 C12.36 3.34 9.72 2.68 7 2 C7 2.66 7 3.32 7 4 C2.25 3.125 2.25 3.125 0 2 C0 1.34 0 0.68 0 0 Z " fill="#171717" transform="translate(337,253)"/>
<path d="M0 0 C0.66 0 1.32 0 2 0 C2.66 0.66 3.32 1.32 4 2 C3.66083005 5.18819752 3.01406317 7.95781049 2 11 C12.56 11 23.12 11 34 11 C34 11.99 34 12.98 34 14 C22.78 14.33 11.56 14.66 0 15 C0 10.05 0 5.1 0 0 Z " fill="#020202" transform="translate(248,257)"/>
<path d="M0 0 C7 0 7 0 9 1.25 C10 3 10 3 9.625 5.125 C9.41875 5.74375 9.2125 6.3625 9 7 C9.33 7.33 9.66 7.66 10 8 C10.1875 10.4375 10.1875 10.4375 10 13 C8 15 8 15 6.0546875 15.1953125 C4.03645833 15.13020833 2.01822917 15.06510417 0 15 C0 10.05 0 5.1 0 0 Z " fill="#0B0B0B" transform="translate(154,381)"/>
<path d="M0 0 C2.4375 0.375 2.4375 0.375 5 1 C6.41514574 3.83029148 6.20780992 6.28379133 6.25 9.4375 C6.28867187 11.16806641 6.28867187 11.16806641 6.328125 12.93359375 C6 16 6 16 4.80859375 17.8984375 C2.36556591 19.38641558 0.65130186 19.29810267 -2.1875 19.1875 C-3.53908203 19.14689453 -3.53908203 19.14689453 -4.91796875 19.10546875 C-5.60503906 19.07066406 -6.29210937 19.03585937 -7 19 C-7 18.67 -7 18.34 -7 18 C-4.69 18 -2.38 18 0 18 C-0.32484375 17.443125 -0.6496875 16.88625 -0.984375 16.3125 C-2.13627313 13.68971657 -2.26739351 11.85253627 -2.25 9 C-2.25773437 7.7315625 -2.25773437 7.7315625 -2.265625 6.4375 C-1.98531155 3.86521189 -1.2948187 2.2196892 0 0 Z " fill="#919191" transform="translate(353,286)"/>
<path d="M0 0 C1.875 0.9375 1.875 0.9375 3.875 3.9375 C3.95703125 6.09375 3.95703125 6.09375 3.6875 8.4375 C3.61144531 9.2109375 3.53539062 9.984375 3.45703125 10.78125 C2.76933901 13.32894205 1.97973436 14.3678676 -0.125 15.9375 C-4.54605263 15.51644737 -4.54605263 15.51644737 -6.125 13.9375 C-6.64416898 9.26497921 -6.98785524 5.26259912 -4.375 1.25 C-2.125 -0.0625 -2.125 -0.0625 0 0 Z " fill="#313131" transform="translate(309.125,299.0625)"/>
<path d="M0 0 C0.66 0 1.32 0 2 0 C2 0.66 2 1.32 2 2 C2.66 2 3.32 2 4 2 C4.66 3.32 5.32 4.64 6 6 C7.65 6 9.3 6 11 6 C10.34 4.35 9.68 2.7 9 1 C9.66 1 10.32 1 11 1 C11.66 1.99 12.32 2.98 13 4 C15.56282742 4.72965366 15.56282742 4.72965366 18 5 C17.01 6.485 17.01 6.485 16 8 C19.67143168 9.22381056 21.19003607 8.59631158 24.875 7.5625 C28.72056734 6.48786151 32.00070803 5.81553081 36 6 C32.77208445 8.1519437 31.71599191 8.20086443 28 8 C28 8.66 28 9.32 28 10 C13.40318907 14.59225513 13.40318907 14.59225513 6 14 C5.67 15.32 5.34 16.64 5 18 C5 16.35 5 14.7 5 13 C8.50776784 11.39644899 11.14354879 10.77963136 15 11 C14.67 10.34 14.34 9.68 14 9 C11.03 9 8.06 9 5 9 C4.67 9.66 4.34 10.32 4 11 C3.52014033 9.72942818 3.0411407 8.45853152 2.5625 7.1875 C2.16224609 6.12595703 2.16224609 6.12595703 1.75390625 5.04296875 C1.13774814 3.37327604 0.56280765 1.68842296 0 0 Z " fill="#C2C2C2" transform="translate(313,289)"/>
<path d="M0 0 C2.4375 0.6875 2.4375 0.6875 5 2 C5.66015625 4.58203125 5.66015625 4.58203125 6 7 C6.56807373 6.98952637 7.13614746 6.97905273 7.72143555 6.96826172 C30.16042751 6.60989108 30.16042751 6.60989108 40 9 C41 10 41 10 41.0625 12.5625 C41.041875 13.366875 41.02125 14.17125 41 15 C40.505 13.515 40.505 13.515 40 12 C38.58847656 11.90912109 38.58847656 11.90912109 37.1484375 11.81640625 C35.90320313 11.73261719 34.65796875 11.64882812 33.375 11.5625 C32.14523437 11.48128906 30.91546875 11.40007812 29.6484375 11.31640625 C26.38467612 11.03336056 23.22056141 10.58961047 20 10 C20 9.67 20 9.34 20 9 C12.74 9 5.48 9 -2 9 C-1 1 -1 1 0 0 Z " fill="#686868" transform="translate(268,240)"/>
<path d="M0 0 C6 0 6 0 7.875 1 C9.68523932 4.21820324 9.53967465 7.40216898 9 11 C7.875 13 7.875 13 6 14 C4.02 14 2.04 14 0 14 C0 9.38 0 4.76 0 0 Z " fill="#E0E0E0" transform="translate(399,346)"/>
<path d="M0 0 C5.28 0.33 10.56 0.66 16 1 C16 1.99 16 2.98 16 4 C16.99 4.33 17.98 4.66 19 5 C18.01 5 17.02 5 16 5 C16 5.66 16 6.32 16 7 C16.99 7 17.98 7 19 7 C19 8.32 19 9.64 19 11 C18.34 11 17.68 11 17 11 C16.67 11.99 16.34 12.98 16 14 C15.01 14 14.02 14 13 14 C13 13.34 13 12.68 13 12 C12.01 11.67 11.02 11.34 10 11 C10 9.35 10 7.7 10 6 C8.02 6 6.04 6 4 6 C3.896875 5.38125 3.79375 4.7625 3.6875 4.125 C3.12474627 1.63473516 3.12474627 1.63473516 0 0 Z " fill="#636363" transform="translate(249,220)"/>
<path d="M0 0 C1.98 0 3.96 0 6 0 C8 2 8 2 8.265625 4.3125 C8.26046875 5.199375 8.2553125 6.08625 8.25 7 C8.25515625 7.886875 8.2603125 8.77375 8.265625 9.6875 C8 12 8 12 6 14 C4.02 14 2.04 14 0 14 C0 9.38 0 4.76 0 0 Z " fill="#EFEFEF" transform="translate(181,346)"/>
<path d="M0 0 C6.875 0.875 6.875 0.875 8 2 C8.1245486 3.64230364 8.17568524 5.29052276 8.1875 6.9375 C8.20167969 7.83339844 8.21585937 8.72929687 8.23046875 9.65234375 C8 12 8 12 6 14 C4.02 14 2.04 14 0 14 C0 9.38 0 4.76 0 0 Z " fill="#F5F5F5" transform="translate(340,346)"/>
<path d="M0 0 C2.31 0 4.62 0 7 0 C7.33 4.29 7.66 8.58 8 13 C1.84765625 13.09765625 1.84765625 13.09765625 0 13 C-1 12 -1 12 -1.1328125 9.78515625 C-1.13023437 8.88667969 -1.12765625 7.98820312 -1.125 7.0625 C-1.12757813 6.16660156 -1.13015625 5.27070313 -1.1328125 4.34765625 C-1 2 -1 2 0 0 Z " fill="#EDEDED" transform="translate(297,254)"/>
<path d="M0 0 C2.5 0.25 2.5 0.25 4.5 2.25 C4.83333333 7.58333333 4.83333333 7.58333333 3.5 10.25 C0.53 10.25 -2.44 10.25 -5.5 10.25 C-5.5 9.59 -5.5 8.93 -5.5 8.25 C-6.82 8.25 -8.14 8.25 -9.5 8.25 C-9.5 6.27 -9.5 4.29 -9.5 2.25 C-9.17 2.25 -8.84 2.25 -8.5 2.25 C-8.5 3.9 -8.5 5.55 -8.5 7.25 C-7.18 7.25 -5.86 7.25 -4.5 7.25 C-4.54125 6.46625 -4.5825 5.6825 -4.625 4.875 C-4.45379857 1.27977007 -3.58504467 0.35850447 0 0 Z " fill="#302C2D" transform="translate(354.5,309.75)"/>
<path d="M0 0 C2.31 0 4.62 0 7 0 C9.08997373 3.39620731 9.2632246 6.05163095 9 10 C8 11 8 11 6.15234375 11.09765625 C4.1015625 11.06510417 2.05078125 11.03255208 0 11 C0 7.37 0 3.74 0 0 Z " fill="#242424" transform="translate(358,385)"/>
<path d="M0 0 C2.5625 0.3125 2.5625 0.3125 4.4375 1.375 C6.21032183 4.42819315 5.25485306 6.97661708 4.5625 10.3125 C1.1875 10.9375 1.1875 10.9375 -2.4375 11.3125 C-4.4375 9.3125 -4.4375 9.3125 -4.6875 5.8125 C-4.40166115 1.81075612 -4.09542045 0.5250539 0 0 Z " fill="#242424" transform="translate(399.4375,384.6875)"/>
<path d="M0 0 C0.99 0.33 1.98 0.66 3 1 C3 1.66 3 2.32 3 3 C11.58 3 20.16 3 29 3 C29 3.66 29 4.32 29 5 C19.27088552 6.39879438 9.85816251 7.30384747 0 7 C0 6.01 0 5.02 0 4 C0.66 4 1.32 4 2 4 C2 3.34 2 2.68 2 2 C1.34 2 0.68 2 0 2 C0 1.34 0 0.68 0 0 Z " fill="#D4D4D4" transform="translate(334,273)"/>
<path d="M0 0 C0.33 0.99 0.66 1.98 1 3 C-2.3 3.66 -5.6 4.32 -9 5 C-7.68 5.66 -6.36 6.32 -5 7 C-5.66 7 -6.32 7 -7 7 C-7.33 9.64 -7.66 12.28 -8 15 C-9.65 15 -11.3 15 -13 15 C-13.33 15.66 -13.66 16.32 -14 17 C-13.34 12.38 -12.68 7.76 -12 3 C-11.34 3 -10.68 3 -10 3 C-9.608125 2.505 -9.21625 2.01 -8.8125 1.5 C-6.03989283 -0.79457145 -3.4681874 -0.19631249 0 0 Z " fill="#434343" transform="translate(327,297)"/>
<path d="M0 0 C2.97 0 5.94 0 9 0 C9 0.33 9 0.66 9 1 C7.35 1.33 5.7 1.66 4 2 C4 4.64 4 7.28 4 10 C2.35 10 0.7 10 -1 10 C-1 10.66 -1 11.32 -1 12 C2.3 12 5.6 12 9 12 C9 12.33 9 12.66 9 13 C-19.81470138 15.12353241 -19.81470138 15.12353241 -26 11 C-17.92138585 10.90420616 -10.01659634 10.87486367 -2 12 C-1.67 10.68 -1.34 9.36 -1 8 C0.32 8.33 1.64 8.66 3 9 C3 7.02 3 5.04 3 3 C2.34 3 1.68 3 1 3 C0.34 4.32 -0.32 5.64 -1 7 C-0.67 4.69 -0.34 2.38 0 0 Z " fill="#858585" transform="translate(279,282)"/>
<path d="M0 0 C0.11138159 5.45769811 -0.08342019 10.61509359 -1 16 C-2.98 16 -4.96 16 -7 16 C-7 13.69 -7 11.38 -7 9 C-5.35 8.34 -3.7 7.68 -2 7 C-2 6.67 -2 6.34 -2 6 C-3.65 5.67 -5.3 5.34 -7 5 C-7.33 3.68 -7.66 2.36 -8 1 C-5.23735711 0.40267181 -2.83967231 0 0 0 Z " fill="#050505" transform="translate(298,294)"/>
<path d="M0 0 C0.66 0 1.32 0 2 0 C2 2.97 2 5.94 2 9 C3.32 9 4.64 9 6 9 C6 6.03 6 3.06 6 0 C6.66 0 7.32 0 8 0 C8 2.97 8 5.94 8 9 C9.32 9 10.64 9 12 9 C12 6.03 12 3.06 12 0 C12.66 0 13.32 0 14 0 C14 3.63 14 7.26 14 11 C9.38 11 4.76 11 0 11 C0 7.37 0 3.74 0 0 Z " fill="#161616" transform="translate(325,385)"/>
<path d="M0 0 C0.66 0 1.32 0 2 0 C2 2.97 2 5.94 2 9 C3.32 9 4.64 9 6 9 C6 6.03 6 3.06 6 0 C6.66 0 7.32 0 8 0 C8 2.97 8 5.94 8 9 C9.32 9 10.64 9 12 9 C12 6.03 12 3.06 12 0 C12.66 0 13.32 0 14 0 C14 3.63 14 7.26 14 11 C9.38 11 4.76 11 0 11 C0 7.37 0 3.74 0 0 Z " fill="#1A1A1A" transform="translate(178,385)"/>
<path d="M0 0 C3.3 0 6.6 0 10 0 C9.67 1.32 9.34 2.64 9 4 C8.10796875 4.12117187 7.2159375 4.24234375 6.296875 4.3671875 C4.54117187 4.61855469 4.54117187 4.61855469 2.75 4.875 C1.58984375 5.03742188 0.4296875 5.19984375 -0.765625 5.3671875 C-3.62509046 5.92664813 -5.58470775 6.41565692 -8 8 C-8.99 9.485 -8.99 9.485 -10 11 C-10 9.68 -10 8.36 -10 7 C-10.9075 7.33 -11.815 7.66 -12.75 8 C-16 9 -16 9 -20 9 C-19.34 7.68 -18.68 6.36 -18 5 C-17.30132812 5.02320313 -16.60265625 5.04640625 -15.8828125 5.0703125 C-14.51769531 5.09738281 -14.51769531 5.09738281 -13.125 5.125 C-12.22007812 5.14820313 -11.31515625 5.17140625 -10.3828125 5.1953125 C-7.81193006 5.24324836 -7.81193006 5.24324836 -6 3 C-4.01643517 2.28591666 -2.01684563 1.61382258 0 1 C0 0.67 0 0.34 0 0 Z " fill="#383838" transform="translate(262,248)"/>
<path d="M0 0 C2.875 -0.125 2.875 -0.125 6 0 C8 2 8 2 8.1953125 4.1640625 C8.17210937 4.97617187 8.14890625 5.78828125 8.125 6.625 C8.10695313 7.44226563 8.08890625 8.25953125 8.0703125 9.1015625 C8.03550781 10.04128906 8.03550781 10.04128906 8 11 C5.36 11 2.72 11 0 11 C-0.33 9.35 -0.66 7.7 -1 6 C2 4 2 4 5 4 C5 3.34 5 2.68 5 2 C3.35 2 1.7 2 0 2 C0 1.34 0 0.68 0 0 Z " fill="#3D3D3D" transform="translate(314,385)"/>
<path d="M0 0 C0.66 0.33 1.32 0.66 2 1 C2.6328125 3.50390625 2.6328125 3.50390625 3.125 6.5625 C3.29257812 7.57441406 3.46015625 8.58632813 3.6328125 9.62890625 C3.75398438 10.41136719 3.87515625 11.19382812 4 12 C2.72125 12.061875 1.4425 12.12375 0.125 12.1875 C-0.59429687 12.22230469 -1.31359375 12.25710938 -2.0546875 12.29296875 C-2.69664062 12.19628906 -3.33859375 12.09960938 -4 12 C-6 9 -6 9 -6 6 C-6.66 5.67 -7.32 5.34 -8 5 C-5.36 4.34 -2.72 3.68 0 3 C0 2.01 0 1.02 0 0 Z " fill="#0F0F0F" transform="translate(349,292)"/>
<path d="M0 0 C1.99954746 -0.04254356 4.00041636 -0.04080783 6 0 C7 1 7 1 7.09765625 3.28515625 C7.08605469 4.20167969 7.07445312 5.11820312 7.0625 6.0625 C7.05347656 6.98160156 7.04445312 7.90070313 7.03515625 8.84765625 C7.02355469 9.55792969 7.01195312 10.26820313 7 11 C4.69 11 2.38 11 0 11 C-0.625 8.625 -0.625 8.625 -1 6 C-0.34 5.34 0.32 4.68 1 4 C2.32 4 3.64 4 5 4 C5 3.34 5 2.68 5 2 C3.35 2 1.7 2 0 2 C0 1.34 0 0.68 0 0 Z " fill="#020202" transform="translate(247,385)"/>
<path d="M0 0 C1.99954746 -0.04254356 4.00041636 -0.04080783 6 0 C7 1 7 1 7.09765625 3.28515625 C7.08605469 4.20167969 7.07445312 5.11820312 7.0625 6.0625 C7.05347656 6.98160156 7.04445313 7.90070313 7.03515625 8.84765625 C7.02355469 9.55792969 7.01195312 10.26820313 7 11 C4.69 11 2.38 11 0 11 C-0.625 8.625 -0.625 8.625 -1 6 C-0.34 5.34 0.32 4.68 1 4 C2.32 4 3.64 4 5 4 C5 3.34 5 2.68 5 2 C3.35 2 1.7 2 0 2 C0 1.34 0 0.68 0 0 Z " fill="#242424" transform="translate(418,385)"/>
<path d="M0 0 C0.99 0.33 1.98 0.66 3 1 C2.38125 1.28875 1.7625 1.5775 1.125 1.875 C-1.13325765 2.93720042 -1.13325765 2.93720042 -3 5 C-2.67 5.66 -2.34 6.32 -2 7 C-2.48339844 7.39316406 -2.96679688 7.78632813 -3.46484375 8.19140625 C-5.94809538 11.11696733 -5.58490006 13.91307045 -5.50390625 17.6171875 C-5.1725986 20.37970463 -5.1725986 20.37970463 -2 22.5625 C-1.01 23.036875 -0.02 23.51125 1 24 C1 24.33 1 24.66 1 25 C-2.375 25.1875 -2.375 25.1875 -6 25 C-9.11845791 20.32231313 -8.46440574 15.4785365 -8 10 C-6.40218678 5.29065576 -4.23066745 2.64416716 0 0 Z " fill="#DDDDDD" transform="translate(309,293)"/>
<path d="M0 0 C1.98 0 3.96 0 6 0 C6.19491452 1.45736087 6.38069358 2.91594593 6.5625 4.375 C6.66691406 5.18710937 6.77132813 5.99921875 6.87890625 6.8359375 C7 9 7 9 6 11 C2.7 11 -0.6 11 -4 11 C-4 10.34 -4 9.68 -4 9 C-2.35 9 -0.7 9 1 9 C0.67 6.03 0.34 3.06 0 0 Z " fill="#010101" transform="translate(282,283)"/>
<path d="M0 0 C2.375 -0.125 2.375 -0.125 5 0 C7 2 7 2 7.1953125 4.1640625 C7.17210937 4.97617187 7.14890625 5.78828125 7.125 6.625 C7.10695313 7.44226563 7.08890625 8.25953125 7.0703125 9.1015625 C7.03550781 10.04128906 7.03550781 10.04128906 7 11 C4.66705225 11.04241723 2.33297433 11.04092937 0 11 C-1 10 -1 10 -1.0625 7.4375 C-1.041875 6.633125 -1.02125 5.82875 -1 5 C0.98 4.67 2.96 4.34 5 4 C5 3.34 5 2.68 5 2 C3.35 2 1.7 2 0 2 C0 1.34 0 0.68 0 0 Z " fill="#4C4C4C" transform="translate(343,385)"/>
<path d="M0 0 C2.375 -0.125 2.375 -0.125 5 0 C7 2 7 2 7.1953125 4.1640625 C7.17210937 4.97617187 7.14890625 5.78828125 7.125 6.625 C7.10695312 7.44226563 7.08890625 8.25953125 7.0703125 9.1015625 C7.03550781 10.04128906 7.03550781 10.04128906 7 11 C4.66705225 11.04241723 2.33297433 11.04092937 0 11 C-1 10 -1 10 -1.0625 7.4375 C-1.041875 6.633125 -1.02125 5.82875 -1 5 C0.98 4.67 2.96 4.34 5 4 C5 3.34 5 2.68 5 2 C3.35 2 1.7 2 0 2 C0 1.34 0 0.68 0 0 Z " fill="#4C4C4C" transform="translate(224,385)"/>
<path d="M0 0 C2.375 -0.125 2.375 -0.125 5 0 C7 2 7 2 7.1953125 4.1640625 C7.17210937 4.97617187 7.14890625 5.78828125 7.125 6.625 C7.10695312 7.44226563 7.08890625 8.25953125 7.0703125 9.1015625 C7.03550781 10.04128906 7.03550781 10.04128906 7 11 C4.66705225 11.04241723 2.33297433 11.04092937 0 11 C-1 10 -1 10 -1.0625 7.4375 C-1.041875 6.633125 -1.02125 5.82875 -1 5 C0.98 4.67 2.96 4.34 5 4 C5 3.34 5 2.68 5 2 C3.35 2 1.7 2 0 2 C0 1.34 0 0.68 0 0 Z " fill="#4C4C4C" transform="translate(168,385)"/>
<path d="M0 0 C-1.32 0.33 -2.64 0.66 -4 1 C-4 2.98 -4 4.96 -4 7 C-6.64 7.33 -9.28 7.66 -12 8 C-11.34 7.67 -10.68 7.34 -10 7 C-9.67 6.01 -9.34 5.02 -9 4 C-9.66 3.67 -10.32 3.34 -11 3 C-11 2.34 -11 1.68 -11 1 C-11.94875 1.474375 -12.8975 1.94875 -13.875 2.4375 C-15.58333333 3.29166667 -17.29166667 4.14583333 -19 5 C-19.66 4.67 -20.32 4.34 -21 4 C-21 3.34 -21 2.68 -21 2 C-13.5538155 -0.23007556 -7.69006362 -1.409845 0 0 Z " fill="#515151" transform="translate(314,237)"/>
<path d="M0 0 C0.33 0.33 0.66 0.66 1 1 C2.77869726 1.15764405 4.56318476 1.25100677 6.34765625 1.31640625 C7.42724609 1.35830078 8.50683594 1.40019531 9.61914062 1.44335938 C11.32360352 1.50233398 11.32360352 1.50233398 13.0625 1.5625 C14.20267578 1.60568359 15.34285156 1.64886719 16.51757812 1.69335938 C19.34492195 1.79982839 22.17235738 1.90184207 25 2 C25 2.33 25 2.66 25 3 C17.08 3 9.16 3 1 3 C1 3.66 1 4.32 1 5 C-1.97 5 -4.94 5 -8 5 C-8 4.34 -8 3.68 -8 3 C-9.32 2.67 -10.64 2.34 -12 2 C-7.9088444 0.7165002 -4.3091525 -0.38021934 0 0 Z " fill="#484647" transform="translate(271,315)"/>
<path d="M0 0 C0.66 0 1.32 0 2 0 C3.0070238 5.03511899 2.97387813 8.23947038 1 13 C-0.65 13 -2.3 13 -4 13 C-4 10.03 -4 7.06 -4 4 C-3.01 4 -2.02 4 -1 4 C-0.67 2.68 -0.34 1.36 0 0 Z " fill="#898989" transform="translate(314,262)"/>
<path d="M0 0 C0.99 0 1.98 0 3 0 C3.66 0.66 4.32 1.32 5 2 C4.76072994 4.34484656 4.4054103 6.67810464 4 9 C3.77637635 11.35961501 3.57001781 13.71956713 3.37890625 16.08203125 C3 18 3 18 1 20 C-0.32 20 -1.64 20 -3 20 C-3.33 20.66 -3.66 21.32 -4 22 C-4 21.01 -4 20.02 -4 19 C-4.66 18.67 -5.32 18.34 -6 18 C-4.35 17.67 -2.7 17.34 -1 17 C-0.01 11.72 0.98 6.44 2 1 C1.34 0.67 0.68 0.34 0 0 Z " fill="#626262" transform="translate(298,294)"/>
<path d="M0 0 C0.33 0.99 0.66 1.98 1 3 C-4.93661416 5.41862058 -10.68878497 6.9007105 -17 8 C-17.66 7.01 -18.32 6.02 -19 5 C-12.71356657 3.14264467 -6.36416924 1.56752937 0 0 Z " fill="#101010" transform="translate(347,291)"/>
<path d="M0 0 C0.66 0.66 1.32 1.32 2 2 C0.78763672 2.27263672 0.78763672 2.27263672 -0.44921875 2.55078125 C-1.51785156 2.80214844 -2.58648437 3.05351562 -3.6875 3.3125 C-5.27111328 3.67794922 -5.27111328 3.67794922 -6.88671875 4.05078125 C-10.04507142 4.86998835 -10.04507142 4.86998835 -12.70703125 6.66796875 C-13.46371094 7.10753906 -14.22039062 7.54710937 -15 8 C-15.99 7.67 -16.98 7.34 -18 7 C-17 4 -17 4 -15.1875 3 C-14.465625 2.67 -13.74375 2.34 -13 2 C-12.1646875 1.1646875 -12.1646875 1.1646875 -11.3125 0.3125 C-7.68431096 -1.74674243 -3.95845875 -1.01636103 0 0 Z " fill="#2F2F2F" transform="translate(303,235)"/>
<path d="M0 0 C0.66 0 1.32 0 2 0 C2 1.32 2 2.64 2 4 C4.97 4.495 4.97 4.495 8 5 C8.042721 6.66611905 8.04063832 8.33382885 8 10 C7 11 7 11 3.4375 11.0625 C2.303125 11.041875 1.16875 11.02125 0 11 C0 7.37 0 3.74 0 0 Z " fill="#858585" transform="translate(370,385)"/>
<path d="M0 0 C6.41868512 -0.3633218 6.41868512 -0.3633218 9 1.25 C10 3 10 3 9 7 C6.03 7 3.06 7 0 7 C0 4.69 0 2.38 0 0 Z " fill="#373737" transform="translate(154,381)"/>
<path d="M0 0 C0.66 0 1.32 0 2 0 C2.33 1.98 2.66 3.96 3 6 C3.598125 5.01 4.19625 4.02 4.8125 3 C5.534375 2.01 6.25625 1.02 7 0 C7.99 0 8.98 0 10 0 C10 3.63 10 7.26 10 11 C9.34 11 8.68 11 8 11 C7.67 8.69 7.34 6.38 7 4 C6.66226563 4.5053125 6.32453125 5.010625 5.9765625 5.53125 C5.53054687 6.1809375 5.08453125 6.830625 4.625 7.5 C4.18414062 8.1496875 3.74328125 8.799375 3.2890625 9.46875 C2.86367187 9.9740625 2.43828125 10.479375 2 11 C1.34 11 0.68 11 0 11 C0 7.37 0 3.74 0 0 Z " fill="#303030" transform="translate(195,385)"/>
<path d="M0 0 C0.33 0.66 0.66 1.32 1 2 C-0.85625 2.37125 -0.85625 2.37125 -2.75 2.75 C-6.52401107 3.68515319 -8.55495822 4.87034653 -11 8 C-11.33 8.66 -11.66 9.32 -12 10 C-10.35 9.34 -8.7 8.68 -7 8 C-6.01 9.485 -6.01 9.485 -5 11 C-5.78375 11.144375 -6.5675 11.28875 -7.375 11.4375 C-9.96421018 11.87798925 -9.96421018 11.87798925 -12 13 C-12 12.34 -12 11.68 -12 11 C-12.99 11 -13.98 11 -15 11 C-14.84817368 8.34303932 -14.52675976 6.55765476 -12.66796875 4.58984375 C-8.11862985 0.79319352 -5.84900348 -0.12715225 0 0 Z " fill="#C2C2C2" transform="translate(314,282)"/>
<path d="M0 0 C0.66 0 1.32 0 2 0 C2.33 1.65 2.66 3.3 3 5 C3.61875 4.175 4.2375 3.35 4.875 2.5 C5.57625 1.675 6.2775 0.85 7 0 C7.66 0 8.32 0 9 0 C9 3.63 9 7.26 9 11 C8.34 11 7.68 11 7 11 C6.67 9.02 6.34 7.04 6 5 C5.38125 5.99 4.7625 6.98 4.125 8 C3.42375 8.99 2.7225 9.98 2 11 C1.34 11 0.68 11 0 11 C0 7.37 0 3.74 0 0 Z " fill="#212121" transform="translate(269,385)"/>
<path d="M0 0 C0.66 0 1.32 0 2 0 C2 1.32 2 2.64 2 4 C3.32 4 4.64 4 6 4 C6 2.68 6 1.36 6 0 C6.99 0 7.98 0 9 0 C9 3.63 9 7.26 9 11 C8.34 11 7.68 11 7 11 C7 9.35 7 7.7 7 6 C5.35 6 3.7 6 2 6 C2 7.65 2 9.3 2 11 C1.34 11 0.68 11 0 11 C0 7.37 0 3.74 0 0 Z " fill="#383838" transform="translate(302,385)"/>
<path d="M0 0 C0.66 0.33 1.32 0.66 2 1 C-5.92 8.92 -13.84 16.84 -22 25 C-22 21.47967572 -21.29648649 20.5614657 -19 18 C-18.34 18 -17.68 18 -17 18 C-16.62875 17.071875 -16.62875 17.071875 -16.25 16.125 C-14.77229238 13.61289704 -13.56044823 13.23892656 -11 12 C-10.67 11.01 -10.34 10.02 -10 9 C-8.22265625 7.24609375 -8.22265625 7.24609375 -6.0625 5.4375 C-3.96656037 3.66869432 -1.94005112 1.94005112 0 0 Z " fill="#242525" transform="translate(194,172)"/>
<path d="M0 0 C2.64 0 5.28 0 8 0 C8 2.31 8 4.62 8 7 C5.36 7 2.72 7 0 7 C0 4.69 0 2.38 0 0 Z " fill="#040404" transform="translate(341,282)"/>
<path d="M0 0 C0.66 0 1.32 0 2 0 C2 0.66 2 1.32 2 2 C6.62 2 11.24 2 16 2 C16 3.65 16 5.3 16 7 C15.34 7 14.68 7 14 7 C14 6.01 14 5.02 14 4 C12.86820312 4.09539062 11.73640625 4.19078125 10.5703125 4.2890625 C9.08858388 4.40159885 7.60681055 4.51354758 6.125 4.625 C5.37863281 4.68945312 4.63226563 4.75390625 3.86328125 4.8203125 C1.9129953 4.96087365 -0.04469467 4.98759849 -2 5 C-2.66 4.34 -3.32 3.68 -4 3 C-3.01 3 -2.02 3 -1 3 C-0.67 2.01 -0.34 1.02 0 0 Z " fill="#5B5B5B" transform="translate(349,272)"/>
<path d="M0 0 C1.32 0 2.64 0 4 0 C4 1.32 4 2.64 4 4 C4.66 4.33 5.32 4.66 6 5 C6 6.32 6 7.64 6 9 C6.66 9.33 7.32 9.66 8 10 C8 10.66 8 11.32 8 12 C5.36 11.67 2.72 11.34 0 11 C0 7.37 0 3.74 0 0 Z " fill="#8B8B8B" transform="translate(249,222)"/>
<path d="M0 0 C3.96 0 7.92 0 12 0 C11.01 0.33 10.02 0.66 9 1 C9 1.99 9 2.98 9 4 C9.99 4.33 10.98 4.66 12 5 C11.34 5 10.68 5 10 5 C10 5.66 10 6.32 10 7 C6.7 7 3.4 7 0 7 C1.33333333 5.66666667 2.66666667 4.33333333 4 3 C2.35 2.67 0.7 2.34 -1 2 C-0.67 1.34 -0.34 0.68 0 0 Z " fill="#5A5A5A" transform="translate(312,239)"/>
<path d="M0 0 C3.63 0.33 7.26 0.66 11 1 C11 2.65 11 4.3 11 6 C7.7 6 4.4 6 1 6 C0.67 4.02 0.34 2.04 0 0 Z " fill="#F0F0F0" transform="translate(275,298)"/>
<path d="M0 0 C0.33 0 0.66 0 1 0 C1 2.64 1 5.28 1 8 C1.66 8 2.32 8 3 8 C3 9.65 3 11.3 3 13 C2.34 13 1.68 13 1 13 C1 12.01 1 11.02 1 10 C-1.64 10 -4.28 10 -7 10 C-7 10.99 -7 11.98 -7 13 C-7.66 13 -8.32 13 -9 13 C-9 11.35 -9 9.7 -9 8 C-8.34 8 -7.68 8 -7 8 C-6.67 6.35 -6.34 4.7 -6 3 C-5.67 3 -5.34 3 -5 3 C-5 4.65 -5 6.3 -5 8 C-3.35 8 -1.7 8 0 8 C0 5.36 0 2.72 0 0 Z " fill="#1F1F1F" transform="translate(242,386)"/>
<path d="M0 0 C2.4375 0.625 2.4375 0.625 5 2 C5.8125 5.125 5.8125 5.125 6 8 C3.36 8.33 0.72 8.66 -2 9 C-1.125 1.125 -1.125 1.125 0 0 Z " fill="#F2F2F2" transform="translate(268,240)"/>
<path d="M0 0 C2.31 0 4.62 0 7 0 C6.67 2.97 6.34 5.94 6 9 C4.35 9 2.7 9 1 9 C0.67 6.03 0.34 3.06 0 0 Z " fill="#2F2F2F" transform="translate(236,385)"/>
<path d="M0 0 C0.99 0.99 1.98 1.98 3 3 C3 3.66 3 4.32 3 5 C3.66 5 4.32 5 5 5 C5 8.3 5 11.6 5 15 C3.35 14.67 1.7 14.34 0 14 C0 9.38 0 4.76 0 0 Z " fill="#696969" transform="translate(287,252)"/>
<path d="M0 0 C1.98 0 3.96 0 6 0 C7.04028969 3.38094149 7.15672777 6.47362528 7 10 C6 11 6 11 2.4375 11.0625 C1.303125 11.041875 0.16875 11.02125 -1 11 C-1 10.34 -1 9.68 -1 9 C0.98 9 2.96 9 5 9 C5 8.01 5 7.02 5 6 C3.68 6 2.36 6 1 6 C1 5.34 1 4.68 1 4 C2.32 4 3.64 4 5 4 C5 3.34 5 2.68 5 2 C3.35 2 1.7 2 0 2 C0 1.34 0 0.68 0 0 Z " fill="#2D2D2D" transform="translate(213,385)"/>
<path d="M0 0 C5.94 0.66 11.88 1.32 18 2 C17.67 2.99 17.34 3.98 17 5 C11.30948637 4.4618629 5.65134116 3.8599867 0 3 C0 2.01 0 1.02 0 0 Z " fill="#E3E3E3" transform="translate(253,297)"/>
<path d="M0 0 C2.24658203 -0.34057617 2.24658203 -0.34057617 5.0078125 -0.29296875 C5.99394531 -0.28330078 6.98007812 -0.27363281 7.99609375 -0.26367188 C9.02863281 -0.23853516 10.06117188 -0.21339844 11.125 -0.1875 C12.68541016 -0.16719727 12.68541016 -0.16719727 14.27734375 -0.14648438 C16.85207627 -0.11105228 19.4257833 -0.06165221 22 0 C22 0.33 22 0.66 22 1 C13.97649696 2.18396883 6.13544686 3.28545428 -2 3 C-1.34 2.01 -0.68 1.02 0 0 Z " fill="#050505" transform="translate(272,248)"/>
<path d="M0 0 C1.65 0 3.3 0 5 0 C6.04449911 3.13349732 5.93423645 3.98968256 5 7 C2.69 7 0.38 7 -2 7 C-2.33 6.34 -2.66 5.68 -3 5 C-2.67 4.01 -2.34 3.02 -2 2 C-1.34 2 -0.68 2 0 2 C0 1.34 0 0.68 0 0 Z " fill="#CBCBCB" transform="translate(236,246)"/>
<path d="M0 0 C2.31 0 4.62 0 7 0 C9.66590937 4.55426184 10.31563182 7.73946963 10 13 C8.67581262 11.01371893 7.40335733 8.99187963 6.1875 6.9375 C3.89183219 3.85474609 2.63151731 3.00875481 -1 2 C-0.67 1.34 -0.34 0.68 0 0 Z " fill="#050505" transform="translate(307,290)"/>
<path d="M0 0 C6.39628979 -0.12068471 12.63849395 0.34513908 19 1 C19 2.32 19 3.64 19 5 C17.35 5.33 15.7 5.66 14 6 C14.33 5.34 14.66 4.68 15 4 C12.36 3.34 9.72 2.68 7 2 C7 2.66 7 3.32 7 4 C2.25 3.125 2.25 3.125 0 2 C0 1.34 0 0.68 0 0 Z " fill="#717171" transform="translate(337,253)"/>
<path d="M0 0 C0.66 0 1.32 0 2 0 C2 1.65 2 3.3 2 5 C3.65 5 5.3 5 7 5 C7 3.35 7 1.7 7 0 C7.66 0 8.32 0 9 0 C9 3.63 9 7.26 9 11 C8.34 11 7.68 11 7 11 C7 9.68 7 8.36 7 7 C5.5459375 7.0309375 5.5459375 7.0309375 4.0625 7.0625 C1 7 1 7 0 6 C-0.04080783 4.00041636 -0.04254356 1.99954746 0 0 Z " fill="#363636" transform="translate(257,385)"/>
<path d="M0 0 C0 2.97 0 5.94 0 9 C-1.65 9.33 -3.3 9.66 -5 10 C-5 7.03 -5 4.06 -5 1 C-1 0 -1 0 0 0 Z " fill="#EBEBEB" transform="translate(237,226)"/>
<path d="M0 0 C5.0302076 0.52537724 10.01885239 1.10594786 15 2 C15 2.66 15 3.32 15 4 C11.17679443 5.42258812 8.08718695 6.24042276 4 6 C3.896875 5.38125 3.79375 4.7625 3.6875 4.125 C3.12474627 1.63473516 3.12474627 1.63473516 0 0 Z " fill="#F1F1F1" transform="translate(249,220)"/>
<path d="M0 0 C3 3.625 3 3.625 3 7 C0.03 7 -2.94 7 -6 7 C-6 5.35 -6 3.7 -6 2 C-4.02 2 -2.04 2 0 2 C0 1.34 0 0.68 0 0 Z " fill="#878787" transform="translate(323,273)"/>
<path d="M0 0 C0.99 0.33 1.98 0.66 3 1 C3.33 2.98 3.66 4.96 4 7 C2.68 6.67 1.36 6.34 0 6 C-0.99 7.98 -1.98 9.96 -3 12 C-3.99 11.67 -4.98 11.34 -6 11 C-6 10.01 -6 9.02 -6 8 C-5.01 8 -4.02 8 -3 8 C-3 6.02 -3 4.04 -3 2 C-2.01 2 -1.02 2 0 2 C0 1.34 0 0.68 0 0 Z " fill="#767676" transform="translate(346,259)"/>
<path d="M0 0 C0.94875 0.04125 1.8975 0.0825 2.875 0.125 C2.875 0.785 2.875 1.445 2.875 2.125 C1.225 2.455 -0.425 2.785 -2.125 3.125 C-2.125 4.775 -2.125 6.425 -2.125 8.125 C-0.475 8.455 1.175 8.785 2.875 9.125 C2.875 9.785 2.875 10.445 2.875 11.125 C0 11.25 0 11.25 -3.125 11.125 C-5.125 9.125 -5.125 9.125 -5.375 5.625 C-5.05328869 1.12104166 -4.56738407 0.18269536 0 0 Z " fill="#292929" transform="translate(390.125,384.875)"/>
<path d="M0 0 C2.96404505 2.80804268 5.44499019 5.18315774 7 9 C5.02 9.33 3.04 9.66 1 10 C0.67 8.35 0.34 6.7 0 5 C-0.66 5 -1.32 5 -2 5 C-2 4.34 -2 3.68 -2 3 C-1.34 3 -0.68 3 0 3 C0 2.01 0 1.02 0 0 Z " fill="#0C0C0C" transform="translate(317,286)"/>
<path d="M0 0 C2.18994248 3.28491373 2.35277339 4.83095639 2.625 8.6875 C2.69976562 9.68136719 2.77453125 10.67523438 2.8515625 11.69921875 C2.90054687 12.45847656 2.94953125 13.21773438 3 14 C1.35 14 -0.3 14 -2 14 C-1.03644647 4.58997722 -1.03644647 4.58997722 0 0 Z " fill="#D2D2D2" transform="translate(373,348)"/>
<path d="M0 0 C2.64 0.33 5.28 0.66 8 1 C6.68 1.33 5.36 1.66 4 2 C4.33 5.3 4.66 8.6 5 12 C3.68 12 2.36 12 1 12 C1.01740234 11.07767578 1.01740234 11.07767578 1.03515625 10.13671875 C1.04417969 9.32847656 1.05320313 8.52023438 1.0625 7.6875 C1.07410156 6.88699219 1.08570313 6.08648437 1.09765625 5.26171875 C1.09657855 2.83138666 1.09657855 2.83138666 0 0 Z " fill="#7F7F7F" transform="translate(228,225)"/>
<path d="M0 0 C0 0.66 0 1.32 0 2 C-1.89248819 2.67610423 -3.7891602 3.34050439 -5.6875 4 C-7.27111328 4.556875 -7.27111328 4.556875 -8.88671875 5.125 C-11.78362056 5.9391857 -14.01700623 6.17709796 -17 6 C-17 5.34 -17 4.68 -17 4 C-11.36225904 1.72512207 -6.17368219 0 0 0 Z " fill="#A3A3A3" transform="translate(247,220)"/>
<path d="M0 0 C0.33 0 0.66 0 1 0 C1 1.98 1 3.96 1 6 C4.63 6.66 8.26 7.32 12 8 C11.67 8.66 11.34 9.32 11 10 C7.04 9.67 3.08 9.34 -1 9 C-0.67 6.03 -0.34 3.06 0 0 Z " fill="#ECECEC" transform="translate(245,301)"/>
<path d="M0 0 C0.66 0 1.32 0 2 0 C2.66 0.66 3.32 1.32 4 2 C3.66083005 5.18819752 3.01406317 7.95781049 2 11 C4.31 11 6.62 11 9 11 C9 11.33 9 11.66 9 12 C6.03 12 3.06 12 0 12 C0 8.04 0 4.08 0 0 Z " fill="#292929" transform="translate(248,257)"/>
<path d="M0 0 C1.67542976 0.28604898 3.34385343 0.61781233 5 1 C5 2.65 5 4.3 5 6 C3.34385343 6.38218767 1.67542976 6.71395102 0 7 C-1 6 -1 6 -1.125 3.5 C-1 1 -1 1 0 0 Z " fill="#EDEDED" transform="translate(398,387)"/>
<path d="M0 0 C0 2.97 0 5.94 0 9 C-0.66 8.01 -1.32 7.02 -2 6 C-4.56282742 5.27034634 -4.56282742 5.27034634 -7 5 C-7.33 3.68 -7.66 2.36 -8 1 C-5.23735711 0.40267181 -2.83967231 0 0 0 Z " fill="#131313" transform="translate(298,294)"/>
<path d="M0 0 C2.475 0.495 2.475 0.495 5 1 C5 3.97 5 6.94 5 10 C5.66 10.33 6.32 10.66 7 11 C7 11.66 7 12.32 7 13 C6.01 13 5.02 13 4 13 C3.67 10.36 3.34 7.72 3 5 C2.01 5 1.02 5 0 5 C0 3.35 0 1.7 0 0 Z " fill="#424242" transform="translate(265,222)"/>
<path d="M0 0 C2.31 0 4.62 0 7 0 C6.67 0.66 6.34 1.32 6 2 C4.68 1.67 3.36 1.34 2 1 C2 2.32 2 3.64 2 5 C3.32 5.33 4.64 5.66 6 6 C4.68 6 3.36 6 2 6 C2 7.32 2 8.64 2 10 C3.32 10.33 4.64 10.66 6 11 C4.02 11 2.04 11 0 11 C0 7.37 0 3.74 0 0 Z " fill="#111111" transform="translate(358,385)"/>
<path d="M0 0 C2.97 0 5.94 0 9 0 C9 0.66 9 1.32 9 2 C8.01 2 7.02 2 6 2 C6 4.97 6 7.94 6 11 C5.34 11 4.68 11 4 11 C4 8.03 4 5.06 4 2 C2.68 2 1.36 2 0 2 C0 1.34 0 0.68 0 0 Z " fill="#202020" transform="translate(406,385)"/>
<path d="M0 0 C0.66 0.33 1.32 0.66 2 1 C2.625 4.0625 2.625 4.0625 3 7 C2.01 7 1.02 7 0 7 C-0.33 7.66 -0.66 8.32 -1 9 C-1.66 8.67 -2.32 8.34 -3 8 C-3 5.69 -3 3.38 -3 1 C-2.01 0.67 -1.02 0.34 0 0 Z " fill="#090909" transform="translate(315,274)"/>
<path d="M0 0 C-0.66 0 -1.32 0 -2 0 C-1.773125 0.763125 -1.54625 1.52625 -1.3125 2.3125 C-1.209375 3.199375 -1.10625 4.08625 -1 5 C-2.4375 6.8125 -2.4375 6.8125 -4 8 C-4 7.34 -4 6.68 -4 6 C-4.99 5.67 -5.98 5.34 -7 5 C-6.67 3.35 -6.34 1.7 -6 0 C-3 -1 -3 -1 0 0 Z " fill="#0F0F0F" transform="translate(261,226)"/>
<path d="M0 0 C0.33 1.65 0.66 3.3 1 5 C-1.31 5 -3.62 5 -6 5 C-6.33 3.68 -6.66 2.36 -7 1 C-4.53721199 -0.231394 -2.7204945 -0.07159196 0 0 Z " fill="#727272" transform="translate(424,391)"/>
<path d="M0 0 C0.66 0 1.32 0 2 0 C2 2.97 2 5.94 2 9 C-0.64 9 -3.28 9 -6 9 C-6.33 7.35 -6.66 5.7 -7 4 C-6.34 4 -5.68 4 -5 4 C-4.67 4.99 -4.34 5.98 -4 7 C-1.98491642 7.73323796 -1.98491642 7.73323796 0 8 C-0.185625 7.236875 -0.37125 6.47375 -0.5625 5.6875 C-1 3 -1 3 0 0 Z " fill="#292929" transform="translate(320,387)"/>
<path d="M0 0 C0.66 0.33 1.32 0.66 2 1 C2.125 8.75 2.125 8.75 1 11 C-1 10 -1 10 -2 9 C-2.04092937 6.66702567 -2.04241723 4.33294775 -2 2 C-1.34 2 -0.68 2 0 2 C0 1.34 0 0.68 0 0 Z " fill="#2C2C2C" transform="translate(356,290)"/>
<path d="M0 0 C2.64 0.33 5.28 0.66 8 1 C7.01 1.495 7.01 1.495 6 2 C5.34786708 4.02463255 5.34786708 4.02463255 5 6 C3.35 6 1.7 6 0 6 C0 4.02 0 2.04 0 0 Z " fill="#F2F2F2" transform="translate(239,228)"/>
<path d="M0 0 C-0.66 0 -1.32 0 -2 0 C-2 0.66 -2 1.32 -2 2 C-0.35 2 1.3 2 3 2 C3 2.66 3 3.32 3 4 C1.35 3.67 -0.3 3.34 -2 3 C-2 4.98 -2 6.96 -2 9 C-1.34 9.33 -0.68 9.66 0 10 C-1.32 10 -2.64 10 -4 10 C-4 7.03 -4 4.06 -4 1 C-4.66 0.67 -5.32 0.34 -6 0 C-3 -1 -3 -1 0 0 Z " fill="#414141" transform="translate(241,225)"/>
<path d="M0 0 C3 1 3 1 4 3 C6.12576782 3.46651207 6.12576782 3.46651207 8.5625 3.625 C9.38878906 3.69976562 10.21507812 3.77453125 11.06640625 3.8515625 C11.70449219 3.90054687 12.34257812 3.94953125 13 4 C13 4.33 13 4.66 13 5 C7.97874074 5.77916092 4.02296004 6.13016601 -1 5 C-1.33 3.68 -1.66 2.36 -2 1 C-1.34 0.67 -0.68 0.34 0 0 Z " fill="#565656" transform="translate(247,288)"/>
<path d="M0 0 C0 1.65 0 3.3 0 5 C-2.97 4.67 -5.94 4.34 -9 4 C-9 3.34 -9 2.68 -9 2 C-3.375 0 -3.375 0 0 0 Z " fill="#E8E8E8" transform="translate(248,223)"/>
<path d="M0 0 C8.25 0 16.5 0 25 0 C25 0.33 25 0.66 25 1 C23.97845825 1.03758423 23.97845825 1.03758423 22.9362793 1.07592773 C19.85316245 1.19190952 16.77034954 1.31462616 13.6875 1.4375 C12.61564453 1.47681641 11.54378906 1.51613281 10.43945312 1.55664062 C8.89741211 1.61948242 8.89741211 1.61948242 7.32421875 1.68359375 C6.37635498 1.72025146 5.42849121 1.75690918 4.4519043 1.79467773 C1.863829 1.91430187 1.863829 1.91430187 -1 3 C-0.67 2.01 -0.34 1.02 0 0 Z " fill="#D9D9D9" transform="translate(283,430)"/>
<path d="M0 0 C2.31 0 4.62 0 7 0 C7.33 0.99 7.66 1.98 8 3 C5.03 3.66 2.06 4.32 -1 5 C-0.67 3.35 -0.34 1.7 0 0 Z " fill="#1C1C1C" transform="translate(320,297)"/>
<path d="M0 0 C2.31 0 4.62 0 7 0 C7 1.32 7 2.64 7 4 C5.02 4.33 3.04 4.66 1 5 C0.67 3.35 0.34 1.7 0 0 Z " fill="#8A8A8A" transform="translate(246,391)"/>
<path d="M0 0 C0.33 0 0.66 0 1 0 C1.268125 1.11375 1.53625 2.2275 1.8125 3.375 C2.65809019 7.21840951 2.65809019 7.21840951 6 9 C3.625 9.625 3.625 9.625 1 10 C-1 8 -1 8 -1.1875 4.4375 C-1 1 -1 1 0 0 Z " fill="#090909" transform="translate(304,305)"/>
<path d="M0 0 C1.65 0 3.3 0 5 0 C5.5625 1.9375 5.5625 1.9375 6 4 C5 5 5 5 2.4375 5.0625 C1.2309375 5.0315625 1.2309375 5.0315625 0 5 C0 3.35 0 1.7 0 0 Z " fill="#F0F0F0" transform="translate(156,389)"/>
<path d="M0 0 C0.66 0 1.32 0 2 0 C2.144375 0.94875 2.28875 1.8975 2.4375 2.875 C2.82935399 5.8934494 2.82935399 5.8934494 4 8 C3.01 9.485 3.01 9.485 2 11 C1.34 11 0.68 11 0 11 C0 7.37 0 3.74 0 0 Z " fill="#161616" transform="translate(269,385)"/>
<path d="M0 0 C0.33 0 0.66 0 1 0 C1 3.3 1 6.6 1 10 C2.32 9.67 3.64 9.34 5 9 C5.33 8.01 5.66 7.02 6 6 C6.66 6 7.32 6 8 6 C7.67 7.65 7.34 9.3 7 11 C4.69 11 2.38 11 0 11 C0 7.37 0 3.74 0 0 Z " fill="#0D0D0D" transform="translate(370,385)"/>
<path d="M0 0 C2.31 0 4.62 0 7 0 C7.33 1.32 7.66 2.64 8 4 C5.36 3.67 2.72 3.34 0 3 C0 2.01 0 1.02 0 0 Z " fill="#B7B7B7" transform="translate(275,307)"/>
<path d="M0 0 C1.32 0 2.64 0 4 0 C4 1.98 4 3.96 4 6 C3.01 6 2.02 6 1 6 C1 5.34 1 4.68 1 4 C0.01 3.67 -0.98 3.34 -2 3 C-1.34 2.01 -0.68 1.02 0 0 Z " fill="#F1F1F1" transform="translate(261,228)"/>
<path d="M0 0 C3.96 0 7.92 0 12 0 C12 1.65 12 3.3 12 5 C11.34 5 10.68 5 10 5 C10 4.01 10 3.02 10 2 C6.7 1.67 3.4 1.34 0 1 C0 0.67 0 0.34 0 0 Z " fill="#474747" transform="translate(353,274)"/>
<path d="M0 0 C0.66 0 1.32 0 2 0 C2.33 2.31 2.66 4.62 3 7 C1.02 7 -0.96 7 -3 7 C-3 6.34 -3 5.68 -3 5 C-2.34 5 -1.68 5 -1 5 C-0.67 3.35 -0.34 1.7 0 0 Z " fill="#363636" transform="translate(314,262)"/>
<path d="M0 0 C0 1.32 0 2.64 0 4 C-1.65 4.66 -3.3 5.32 -5 6 C-5.66 4.35 -6.32 2.7 -7 1 C-2.25 0 -2.25 0 0 0 Z " fill="#303030" transform="translate(355,258)"/>
<path d="M0 0 C0.99 0 1.98 0 3 0 C3 2.31 3 4.62 3 7 C1.68 7 0.36 7 -1 7 C-0.67 4.69 -0.34 2.38 0 0 Z " fill="#FBFBFB" transform="translate(238,387)"/>
<path d="M0 0 C3.3 0.33 6.6 0.66 10 1 C10.33 1.99 10.66 2.98 11 4 C7.37 3.34 3.74 2.68 0 2 C0 1.34 0 0.68 0 0 Z " fill="#D4D4D4" transform="translate(257,305)"/>
<path d="M0 0 C1.98 0.66 3.96 1.32 6 2 C6 2.66 6 3.32 6 4 C3.69 4.33 1.38 4.66 -1 5 C-0.67 3.35 -0.34 1.7 0 0 Z " fill="#656565" transform="translate(247,302)"/>
<path d="M0 0 C3.3 0.33 6.6 0.66 10 1 C9.67 1.99 9.34 2.98 9 4 C6.03 3.67 3.06 3.34 0 3 C0 2.01 0 1.02 0 0 Z " fill="#DADADA" transform="translate(253,297)"/>
<path d="M0 0 C1.98 0.495 1.98 0.495 4 1 C3.01 1 2.02 1 1 1 C1 1.66 1 2.32 1 3 C5.62 3 10.24 3 15 3 C15 3.33 15 3.66 15 4 C10.05 4.33 5.1 4.66 0 5 C-0.33 4.34 -0.66 3.68 -1 3 C-0.67 2.01 -0.34 1.02 0 0 Z " fill="#262626" transform="translate(251,287)"/>
<path d="M0 0 C1.18851562 0.00902344 2.37703125 0.01804687 3.6015625 0.02734375 C4.51679688 0.03894531 5.43203125 0.05054688 6.375 0.0625 C6.375 0.3925 6.375 0.7225 6.375 1.0625 C4.065 1.3925 1.755 1.7225 -0.625 2.0625 C-0.625 2.3925 -0.625 2.7225 -0.625 3.0625 C-2.935 3.0625 -5.245 3.0625 -7.625 3.0625 C-7.955 2.4025 -8.285 1.7425 -8.625 1.0625 C-5.74084117 -0.37957941 -3.20778472 -0.03144887 0 0 Z " fill="#646464" transform="translate(340.625,279.9375)"/>
<path d="M0 0 C5.75 1.625 5.75 1.625 8 5 C5.69 5 3.38 5 1 5 C0.34 3.68 -0.32 2.36 -1 1 C-0.67 0.67 -0.34 0.34 0 0 Z " fill="#C1C1C1" transform="translate(302,313)"/>
<path d="M0 0 C1.65 0 3.3 0 5 0 C5 1.65 5 3.3 5 5 C3.35 4.67 1.7 4.34 0 4 C0 2.68 0 1.36 0 0 Z " fill="#BEBEBE" transform="translate(245,295)"/>
<path d="M0 0 C1.65 0.33 3.3 0.66 5 1 C4.67 2.32 4.34 3.64 4 5 C2.35 5.33 0.7 5.66 -1 6 C-0.67 4.02 -0.34 2.04 0 0 Z " fill="#C1C1C1" transform="translate(353,286)"/>
<path d="M0 0 C1.32 0.33 2.64 0.66 4 1 C4.33 2.32 4.66 3.64 5 5 C4.01 5.66 3.02 6.32 2 7 C0 5 0 5 -0.125 2.375 C-0.08375 1.59125 -0.0425 0.8075 0 0 Z " fill="#F5F5F5" transform="translate(306,305)"/>
<path d="M0 0 C0.66 0.66 1.32 1.32 2 2 C1.67 2.99 1.34 3.98 1 5 C-2.3 5.33 -5.6 5.66 -9 6 C-7 4 -7 4 -3.875 3.875 C-2.92625 3.91625 -1.9775 3.9575 -1 4 C-0.67 2.68 -0.34 1.36 0 0 Z " fill="#434343" transform="translate(316,284)"/>
<path d="M0 0 C0.99 0 1.98 0 3 0 C3 2.64 3 5.28 3 8 C2.01 8 1.02 8 0 8 C0 5.36 0 2.72 0 0 Z " fill="#AFAFAF" transform="translate(244,281)"/>
<path d="M0 0 C-1.11375 0.474375 -2.2275 0.94875 -3.375 1.4375 C-5.26710994 2.25306463 -7.15712709 3.07856355 -9 4 C-9.66 3.67 -10.32 3.34 -11 3 C-11 2.34 -11 1.68 -11 1 C-3.57142857 -1.42857143 -3.57142857 -1.42857143 0 0 Z " fill="#707070" transform="translate(304,238)"/>
<path d="M0 0 C0.66 0 1.32 0 2 0 C2 1.65 2 3.3 2 5 C0.25 6.125 0.25 6.125 -2 7 C-4.25 6.125 -4.25 6.125 -6 5 C-4.35 4.67 -2.7 4.34 -1 4 C-0.67 2.68 -0.34 1.36 0 0 Z " fill="#2B2B2B" transform="translate(162,389)"/>
<path d="M0 0 C1.98 0 3.96 0 6 0 C6.33 0.66 6.66 1.32 7 2 C6.67 2.99 6.34 3.98 6 5 C4.35 5 2.7 5 1 5 C2.32 4.67 3.64 4.34 5 4 C5 3.34 5 2.68 5 2 C3.35 2 1.7 2 0 2 C0 1.34 0 0.68 0 0 Z " fill="#434343" transform="translate(247,385)"/>
<path d="M0 0 C3.875 1.75 3.875 1.75 5 4 C2.47524538 5.26237731 0.68799534 5.09856404 -2.125 5.0625 C-3.03507812 5.05347656 -3.94515625 5.04445313 -4.8828125 5.03515625 C-5.58148438 5.02355469 -6.28015625 5.01195312 -7 5 C-7 4.67 -7 4.34 -7 4 C-4.69 4 -2.38 4 0 4 C0 2.68 0 1.36 0 0 Z " fill="#656565" transform="translate(353,300)"/>
<path d="M0 0 C0.99 0.33 1.98 0.66 3 1 C2.38125 1.28875 1.7625 1.5775 1.125 1.875 C-1.13325765 2.93720042 -1.13325765 2.93720042 -3 5 C-2.67 5.66 -2.34 6.32 -2 7 C-2.99 7.33 -3.98 7.66 -5 8 C-5 4 -5 4 -2.6875 1.6875 C-1.800625 1.130625 -0.91375 0.57375 0 0 Z " fill="#BDBDBD" transform="translate(309,293)"/>
<path d="M0 0 C0.66 0.99 1.32 1.98 2 3 C0 5 0 5 -2.625 5.125 C-3.40875 5.08375 -4.1925 5.0425 -5 5 C-5.33 4.01 -5.66 3.02 -6 2 C-4.02 2 -2.04 2 0 2 C0 1.34 0 0.68 0 0 Z " fill="#656565" transform="translate(323,273)"/>
<path d="M0 0 C2.31 0 4.62 0 7 0 C6.01 0.33 5.02 0.66 4 1 C3.40929986 2.94603274 3.40929986 2.94603274 3 5 C2.34 5.66 1.68 6.32 1 7 C0.67 4.69 0.34 2.38 0 0 Z " fill="#1F1F1F" transform="translate(287,250)"/>
<path d="M0 0 C0.33 0.99 0.66 1.98 1 3 C1.99 3.33 2.98 3.66 4 4 C0.86501708 5.85776765 -1.37471432 6.20140476 -5 6 C-4.67 5.01 -4.34 4.02 -4 3 C-2.68 3 -1.36 3 0 3 C0 2.01 0 1.02 0 0 Z " fill="#9D9D9D" transform="translate(264,221)"/>
<path d="M0 0 C2.31 0 4.62 0 7 0 C6.67 0.99 6.34 1.98 6 3 C4.02 3 2.04 3 0 3 C0 2.01 0 1.02 0 0 Z " fill="#191919" transform="translate(123,407)"/>
<path d="M0 0 C2.475 0.495 2.475 0.495 5 1 C5 1.99 5 2.98 5 4 C3.35 4 1.7 4 0 4 C0 2.68 0 1.36 0 0 Z " fill="#FAFAFA" transform="translate(156,383)"/>
<path d="M0 0 C0.99 0 1.98 0 3 0 C5 2 5 2 5.125 4.625 C5.08375 5.40875 5.0425 6.1925 5 7 C4.01 7 3.02 7 2 7 C2 5.02 2 3.04 2 1 C1.34 0.67 0.68 0.34 0 0 Z " fill="#5C5C5C" transform="translate(298,294)"/>
<path d="M0 0 C0.66 0.33 1.32 0.66 2 1 C0.9024777 3.99324263 0.32317108 4.84610901 -2.625 6.25 C-3.40875 6.4975 -4.1925 6.745 -5 7 C-3.75023244 3.34683329 -3.32901247 2.21934164 0 0 Z " fill="#181818" transform="translate(307,285)"/>
<path d="M0 0 C2.475 0.495 2.475 0.495 5 1 C4.67 1.99 4.34 2.98 4 4 C2.68 4 1.36 4 0 4 C0 2.68 0 1.36 0 0 Z " fill="#DFDFDF" transform="translate(360,391)"/>
<path d="M0 0 C1.32 0 2.64 0 4 0 C4 1.32 4 2.64 4 4 C2.35 3.67 0.7 3.34 -1 3 C-0.67 2.01 -0.34 1.02 0 0 Z " fill="#CDCDCD" transform="translate(316,391)"/>
<path d="M0 0 C2.475 0.495 2.475 0.495 5 1 C4.67 1.99 4.34 2.98 4 4 C2.68 4 1.36 4 0 4 C0 2.68 0 1.36 0 0 Z " fill="#B9B9B9" transform="translate(360,386)"/>
<path d="M0 0 C0.66 0 1.32 0 2 0 C2 1.65 2 3.3 2 5 C3.32 5.33 4.64 5.66 6 6 C4.34385343 6.38218767 2.67542976 6.71395102 1 7 C0 6 0 6 -0.0625 2.9375 C-0.041875 1.968125 -0.02125 0.99875 0 0 Z " fill="#2A2A2A" transform="translate(257,385)"/>
<path d="M0 0 C0.66 0 1.32 0 2 0 C2 2.31 2 4.62 2 7 C0.35 6.67 -1.3 6.34 -3 6 C-2.34 5.34 -1.68 4.68 -1 4 C-0.3574765 1.93125966 -0.3574765 1.93125966 0 0 Z " fill="#414141" transform="translate(310,275)"/>
<path d="M0 0 C0.66 0.33 1.32 0.66 2 1 C2.33 1.99 2.66 2.98 3 4 C0.36 4 -2.28 4 -5 4 C-3.35 2.68 -1.7 1.36 0 0 Z " fill="#4A4A4A" transform="translate(330,264)"/>
<path d="M0 0 C3.3 0.33 6.6 0.66 10 1 C8.515 2.485 8.515 2.485 7 4 C6.01 4 5.02 4 4 4 C4 3.01 4 2.02 4 1 C2.68 0.67 1.36 0.34 0 0 Z " fill="#050505" transform="translate(344,255)"/>
<path d="M0 0 C0.99 0 1.98 0 3 0 C2.34 1.98 1.68 3.96 1 6 C-0.65 5.67 -2.3 5.34 -4 5 C-2.68 4.34 -1.36 3.68 0 3 C0 2.01 0 1.02 0 0 Z " fill="#737373" transform="translate(310,307)"/>
<path d="M0 0 C2.64 0 5.28 0 8 0 C8 0.66 8 1.32 8 2 C5.69 2.33 3.38 2.66 1 3 C0.67 2.01 0.34 1.02 0 0 Z " fill="#F1F1F1" transform="translate(355,276)"/>
<path d="M0 0 C1.32 0 2.64 0 4 0 C4.66 1.65 5.32 3.3 6 5 C4.125 4.75 4.125 4.75 2 4 C0.75 1.9375 0.75 1.9375 0 0 Z " fill="#919191" transform="translate(270,236)"/>
</svg>
